<svg xmlns="http://www.w3.org/2000/svg" viewBox="0 0 731.96 661.66"><title>hiddendarkroom</title><path d="M1172,1470.94v-8.38q.11-2.9-2.79-2.79V1457h-5.59q.11-2.9-2.79-2.79h-2.79v-2.79h-5.59q.11-2.9-2.79-2.79.11-2.9-2.79-2.79h-2.79q.11-2.9-2.79-2.79c-.24-4.18-3.47-2.37-5.59-2.79h-5.59q.11-2.9-2.79-2.79v-5.59h-2.79v-5.59h-2.79v-2.79l-5.59-2.79h-14c-.17,1.71-.52,3.69-2.56,1.5-1.78-1.9-3.79-1.39-5.81-1.5q.11-2.9-2.79-2.79v-2.79h-5.59q.11-2.9-2.79-2.79h-2.79v-2.79h-2.79v-2.79h-5.59a2.17,2.17,0,0,0-2.12-2.74c-1.87-.22-3.67-.22-3.47-2.85h-5.59q.11-2.9-2.79-2.79h-2.79v-5.59h-8.38v-11.17h-2.79q.11-2.9-2.79-2.79v-5.59h-5.59v-2.79h-2.79v-2.79h-2.79l-5.59-14,5.59-2.79,8.38-5.59v-2.79q2.9.11,2.79-2.79H1038V1239.13c-1.42-6,4.22-10.78,2.79-16.76v-19.55c2.26-.44,2.71,2,4.43,2.67,2.47-3-.55-7.78,4.43-10l-5.81-2c-2.86-6.13,7.92-3.12,5.23-9l-5.49-2.53v-36c0-5.5,0-11,0-16.49.06-5.91-1.1-12.25.68-17.61s-2.9-9.52-.8-14.48c.68-1.6,0-3.68-2.68-3.47q.11-2.9-2.79-2.79v-5.59h-5.59c-.24-4.18-3.47-2.37-5.59-2.79v-2.79h-8.38v-14h-2.79v-25.14h.25l-.83-3.56a2.83,2.83,0,0,0,.57-2v-33.51q.11-2.9-2.79-2.79V987.78H1010V979.4h-2.79q.11-2.9-2.79-2.79.11-2.9-2.79-2.79.11-2.9-2.79-2.79h-2.79c-3.29-2.65-7.13-3.13-11.17-2.79-.24-4.18-3.47-2.37-5.59-2.79v-2.79h-8.38q.11-2.9-2.79-2.79h-2.79v-2.79H957v-2.79h-2.79v-14h-2.79V920.75h-2.79c-.42-2.12,1.39-5.35-2.79-5.59h-5.59v-2.79q.11-2.9-2.79-2.79v2.79c-3.56,1.37-5.41-2.39-8.38-2.79h-2.79c-.24-4.18-3.47-2.37-5.59-2.79h-2.79c-.24-4.18-3.47-2.37-5.59-2.79h-2.79c-.24-4.18-3.47-2.37-5.59-2.79h-5.59q.11-2.9-2.79-2.79h-2.79v-2.79h-5.59v-2.79H876a2.13,2.13,0,0,0-2.19-2.74q-14.57-.15-29.14,0a2.13,2.13,0,0,0-2.19,2.74H822.92c-2.75,1.06-7.07-2.59-8.38,2.79H789.4v-2.79c-.57-4.49-5.78-2.23-7.46-5.11L781,890a2.77,2.77,0,0,0,.64,2.15A2.77,2.77,0,0,1,781,890h-5.59c-.31-.77-.48-2.11-.94-2.21-1.67-.38-1.95.86-1.85,2.21-2.57-.41-5.23.72-7.8-.73-1.7-1-12.74-.13-14.54.73v2.79h-5.59v2.79H719.58v2.79H694.45c-2.75,1.06-7.07-2.59-8.38,2.79H661.52c-1.9,0-3.56.28-3.38,2.79h-2.79a2.17,2.17,0,0,0-2.12-2.74c-1.87-.21-3.67.12-3.47,2.74-2.75,1.06-7.07-2.59-8.38,2.79H630.21c-2.12.42-5.35-1.39-5.59,2.79H607.87c-2.12.42-5.35-1.39-5.59,2.79h-14q-2.9-.11-2.79,2.79h-2.79q-2.9-.11-2.79,2.79h-5.59v2.79h-2.79v2.79q-2.9-.11-2.79,2.79-2.9-.11-2.79,2.79h-2.79v2.79H546.43c-2.12.42-5.35-1.39-5.59,2.79H538l-5.59,2.79v8.38h-2.79v2.79c-2.75,1.06-7.07-2.59-8.38,2.79H498.95q-2.9-.11-2.79,2.79H479.4c-2.63,0-5.26,0-7.89,0-1.91,0-3.46.38-3.28,2.8H451.47V985h-2.79v14c-.77.31-2.11.48-2.21.94-.38,1.67.86,1.95,2.21,1.85v2.79a2.17,2.17,0,0,0-2.74,2.12c-.21,1.87.12,3.67,2.74,3.47v2.79c-4.56,5.06-4.33,6,2.79,11.17h5.59q-.11,2.9,2.79,2.79v2.79c.24,4.18,3.47,2.37,5.59,2.79q-.11,2.9,2.79,2.79-.11,2.9,2.79,2.79-.11,2.9,2.79,2.79-.11,2.9,2.79,2.79v5.59h2.79q-.11,2.9,2.79,2.79v2.79H485v55.86h2.79q-.11,2.9,2.79,2.79v55.86h-2.79v2.79H485c-5.38,1.31-1.73,5.63-2.79,8.38v39.1a6.84,6.84,0,0,0-5.59,5.59,6.84,6.84,0,0,0-5.59,5.59v2.79h-5.59v5.59h-5.59v5.59q-2.9-.11-2.79,2.79-2.9-.11-2.79,2.79l-2.79,2.79v2.79l-5.59,5.59q-2.9-.11-2.79,2.79l-2.79,41.89v16.76q-.11,2.9,2.79,2.79-.11,2.9,2.79,2.79c.42,2.12-1.39,5.35,2.79,5.59v5.59c2.63,0,5.26,0,7.89,0,1.91,0,3.46-.38,3.28-2.8h8.38v-2.79h25.14v2.79h2.79v2.79q2.9-.11,2.79,2.79H518.5q-.11,2.9,2.79,2.79h2.79v2.79h-8.38v5.59h-5.59v25.14h2.79v2.79q-.11,2.9,2.79,2.79v2.79q-.11,2.9,2.79,2.79v5.59h14c2.75-1.06,7.07,2.59,8.38-2.79H552l11.17,5.59H566q-.11,2.9,2.79,2.79-.11,2.9,2.79,2.79h2.79q-.11,2.9,2.79,2.79-.11,2.9,2.79,2.79l5.59,2.79v2.79h2.79l2.79,2.79h5.59q-.11,2.9,2.79,2.79-.11,2.9,2.79,2.79h2.79q-.11,2.9,2.79,2.79c.24,4.18,3.47,2.37,5.59,2.79q-.11,2.9,2.79,2.79H619c-.2,2.65,1.61,2.68,3.5,2.82s4.86-1,4.88,2.77c3.61,1.42,5.45-2.64,8.51-2.76,3.68-.14,7.36,0,11,0h2.79v2.79h5.59q-.11,2.9,2.79,2.79V1443h5.59c.24,4.18,3.47,2.37,5.59,2.79q-.11,2.9,2.79,2.79h2.79q-.11,2.9,2.79,2.79-.11,2.9,2.79,2.79V1457h2.79l5.59,2.79,2.79,2.79h2.79q-.11,2.9,2.79,2.79c.24,4.18,3.47,2.37,5.59,2.79q-.11,2.9,2.79,2.79c.24,4.18,3.47,2.37,5.59,2.79q-.11,2.9,2.79,2.79v2.79h5.59v2.79h5.59q-.11,2.9,2.79,2.79-.11,2.9,2.79,2.79c.87,4.74,6.26,2.71,8.38,5.59h2.79v2.79h2.79q-.11,2.9,2.79,2.79-.11,2.9,2.79,2.79v2.79l16.76,8.38,8.38,5.59c.24,4.18,3.47,2.37,5.59,2.79h2.79V1524c3.09-.07,6.44-.53,5.62,4.44a24.47,24.47,0,0,0,0,3.94v2.79c.42,2.12-1.39,5.35,2.79,5.59q-.11,2.9,2.79,2.79t2.79,2.79H809l5.59-2.79h2.79c.24,4.18,3.47,2.37,5.59,2.79h2.79c-.19,2.57,1.53,2.79,3.43,2.79h24.5c2.75-1.06,7.07,2.59,8.38-2.79h2.79c1.69-.35,3.79.93,5.07-.93,1.6-2.34,3.89-1.86,6.1-1.86l2.79-5.59H867.6c-.31-.77-.48-2.11-.94-2.21-1.67-.38-1.95.86-1.85,2.21q-2.9-.11-2.79,2.79h-2.79c-2.12.42-5.35-1.38-5.59,2.79h-5.59c-.31-.77-.48-2.11-.94-2.21-1.67-.38-1.95.86-1.85,2.21H828.5v-2.79c-.35-2.24,1.88-2.76,2.75-4.2-1.71-2.4-5-3.57-5.55-7h5.59q-.11,2.9,2.79,2.79c.31.77.48,2.11.94,2.21,1.67.38,1.95-.86,1.85-2.21h2.79c-.18,2.48,1.43,2.8,3.34,2.79H856.4c-.21.22-.2.65.08,1.22a3.73,3.73,0,0,0,1.63,1.26c.1.06.56-.54.88-.86-.44-.54-.77-1.3-1.34-1.58s-1-.28-1.22-.07v-2.76h13.94c-.21.22-.2.65.08,1.22a3.73,3.73,0,0,0,1.63,1.26c.1.06.56-.54.88-.86-.44-.54-.77-1.3-1.34-1.58s-1-.28-1.22-.07v-2.76h8.38c-.15,2.27,1.24,2.93,3.14,2.75.73-.07,2-.65,2-1,0-1.41-1-1.9-2.36-1.72v-2.79h8.38l2.79,5.59q-2.9-.11-2.79,2.79h-5.59l3.09,1.55a2.36,2.36,0,0,0,2.49,1.25h14l8.38-2.79c2.12-.42,5.35,1.39,5.59-2.79h8.38c3.56,1.37,5.41-2.39,8.38-2.79H943q2.9.11,2.79-2.79h8.38c2.75-1.06,7.07,2.59,8.38-2.79h5.59c6-2.25,12.29-3,18.64-3.39.35,0,.61-1.43.91-2.2h8.38c6-2.25,12.29-3,18.64-3.39.35,0,.61-1.43.91-2.2h11.17c2.12-.42,5.35,1.39,5.59-2.79h11.17c4.63,2.71,8.4,1.94,11.17-2.79.46-4.6,4-2.25,6.28-2.76,2-.44,4.87.93,4.89-2.83h14v-2.79h5.59c6,1.42,10.78-4.22,16.76-2.79H1105v-2.79h5.59c5.13,1.43,9-3.26,14-2.79,2.12-.42,5.35,1.38,5.59-2.79h5.59c2.75-1.06,7.07,2.59,8.38-2.79h5.59c6.88.28,13-3.21,19.54-4.31a6.85,6.85,0,0,0,0-1.28C1174.61,1478,1171,1473.68,1172,1470.94Zm-30.72,11.17a4.6,4.6,0,0,0-.62-2.79h.62Zm-95,5.59c-3.56,1.37-5.41-2.39-8.38-2.79h-2.79v-2.79q-.11-2.9,2.79-2.79c.24,4.18,3.47,2.37,5.59,2.79h5.59q-.11,2.9,2.79,2.79v2.79Zm-132.66,39.1c.16-.16.39-.33.57-.49-.19.16-.42.33-.57.49l-1-1.8Zm-51.18-8.38c-1.91,0-3.46.38-3.28,2.8H848.05l-2.29-.85c-.11-3.46,3.41-.85,4.56-3l-2.26-4.5V1510c2.26.46,2.7-2.08,4.36-2.62,2,2.52,1.7,6.82,5.76,7.75.37-.34,1-.64,1-1,.11-1.38,0-2.77,0-4.16-1.36.1-2.59-.18-2.21-1.85.1-.46,1.44-.64,2.21-.94V1510H862q-.11,2.9,2.79,2.79h2.79c.68,3.83,2.74,3.4,5.26,1.74,1-.65,2.07-1.16,3.11-1.74q2.9-.11,2.79,2.79-2.9-.11-2.79,2.79h-5.59C867.76,1518.41,865.14,1518.42,862.51,1518.41Zm-240.67-92.16H619v-2.79q-.11-2.9,2.79-2.79Zm-16.76-58.65c-.24-4.18-3.47-2.37-5.59-2.79H596.7c-.24-4.18-3.47-2.37-5.59-2.79h-5.59v-2.79c-.24-4.18-3.47-2.37-5.59-2.79q-2.9.11-2.79-2.79a2.17,2.17,0,0,0,2.74-2.12c.21-1.87-.12-3.67-2.74-3.47v-5.59q2.9.11,2.79-2.79h-2.79v-8.38a2.17,2.17,0,0,0,2.74-2.12c.21-1.87-.12-3.67-2.74-3.47v-5.59c.77-.31,2.11-.48,2.21-.94.38-1.67-.86-1.95-2.21-1.85v-2.79c.77-.31,2.11-.48,2.21-.94.38-1.67-.86-1.95-2.21-1.85V1309c3.77,0,2.75-2.91,2.76-4.92.06-18.84,0-37.68,0-56.52V1121.83c2.42.17,2.8-1.38,2.8-3.28,0-2.63,0-5.26,0-7.89v-61.44h2.79c0-3.73,2.86-2.62,4.88-2.77s3.71-.17,3.5-2.82h2.79q2.9.11,2.79-2.79h5.59c2.12-2.88,7.51-.84,8.38-5.59H619v22.34c-2.64-.2-2.79,1.6-2.79,3.49q0,16.41,0,32.81v100.54h-2.79v97.75c-2.55-.19-2.79,1.51-2.79,3.41q0,8.07,0,16.14v53.06q-2.9-.11-2.79,2.79h2.79v2.79h-2.79v-2.79ZM518.5,1331.3v-2.79h2.79v2.79h2.79v2.79h-2.79v-2.79Zm-30.72-122.88v-5.59c.77-.31,2.11-.48,2.21-.94.38-1.67-.86-1.95-2.21-1.85v-2.79c.77-.31,2.11-.48,2.21-.94.38-1.67-.86-1.95-2.21-1.85v-5.59c.77-.31,2.11-.48,2.21-.94.38-1.67-.86-1.95-2.21-1.85v-5.59h2.79l5.59,2.79v5.59c-2.57-.19-2.79,1.53-2.79,3.43q0,9.46,0,18.91c-1.06,2.75,2.59,7.07-2.79,8.38C487.92,1216.29,487.44,1212.45,487.78,1208.41ZM462.64,982.19v-14h2.79v-2.79h27.93v-2.79h8.38V985h-39.1ZM525,970.44c1.67.38,1.95-.86,1.85-2.21h5.59V971q-2.9-.11-2.79,2.79h5.59q2.9-.11,2.79,2.79v2.79h2.79v2.79H538v5.59h2.79V999H538q-2.9-.11-2.79,2.79-2.9-.11-2.79,2.79h-5.59v2.79h-2.79l-5.59,2.79V968.23h5.59C524.39,969,524.57,970.34,525,970.44Zm116.36-49.69V918h14q2.9.11,2.79-2.79h11.17c.24-4.18,3.47-2.37,5.59-2.79h8.38c.31.77.48,2.11.94,2.21,1.67.38,1.95-.86,1.85-2.21h16.76v2.79h5.59V918H714c.42,2.12-1.39,5.35,2.79,5.59h2.79v-2.79h2.79v2.79h8.38v-2.79H750.3c.42,2.12-1.39,5.35,2.79,5.59v2.79q-2.9-.11-2.79,2.79-2.9-.11-2.79,2.79h-14c-2.63,0-5.26,0-7.89,0-1.91,0-3.46.38-3.28,2.8h-14v2.79H691.65v-2.79c-2.12.42-5.35-1.39-5.59,2.79H664.38c-1.9,0-3.64.2-3.45,2.79h-2.79c-.24-4.18-3.47-2.37-5.59-2.79a2.17,2.17,0,0,1-2.12,2.74c-1.87.22-3.67.22-3.47,2.85h-2.79c-1.31-5.38-5.63-1.73-8.38-2.79V940.3a16.27,16.27,0,0,0,2.73,0c.82-.14,2.16-.44,2.26-.9.39-1.72-.9-1.92-2.26-1.86-.91,0-1.83,0-2.74,0v-2.79h-5.59q.11-2.9-2.79-2.79h-2.79v-2.79c.77-.31,2.11-.48,2.21-.94.38-1.67-.86-1.95-2.21-1.85h-2.79q.11,2.9-2.79,2.79-.11-2.9,2.79-2.79c-.24-4.18-3.47-2.37-5.59-2.79v-2.79h5.59c2.89-.52,4.69,6.12,8.22,1.29-.87-1.38-3-1.93-2.64-4.08h8.38C636,922.14,639.27,920.33,641.38,920.75ZM828.5,996.16V999h-2.79v-2.79ZM979.31,971v2.79q-2.9-.11-2.79,2.79-2.9-.11-2.79,2.79v11.17q-2.9-.11-2.79,2.79h2.79v8.38h-5.59v8.38q-.11,2.9,2.79,2.79-.11,2.9,2.79,2.79h2.79v2.79h11.17q2.9.11,2.79-2.79H984.9v-2.79h14v2.79q-2.9-.11-2.79,2.79h8.38q-.11,2.9,2.79,2.79v-2.79H1010v2.79h-2.79q-.11,2.9,2.79,2.79v2.79h-5.59v2.79q2.9-.11,2.79,2.79,2.9-.11,2.79,2.79h-2.79q.11,2.9-2.79,2.79c-2.12.42-5.35-1.39-5.59,2.79h-8.38q.11-2.9-2.79-2.79h-8.38v-2.79h-2.79c-2.12.42-5.35-1.39-5.59,2.79h-8.38V996.16q2.9.11,2.79-2.79h2.79q.11-2.9-2.79-2.79V985q2.9.11,2.79-2.79,2.9.11,2.79-2.79h-2.79v-5.59c.42-2.12-1.39-5.35,2.79-5.59h5.59Q976.41,971.13,979.31,971Zm19.55,5.59v2.79h-2.79Q996,976.5,998.86,976.61Zm-391,50.27q.11-2.9-2.79-2.79h-2.79v-2.79h-8.38v-2.79h-2.79q.11-2.9-2.79-2.79h-2.79q.11-2.9-2.79-2.79h-5.59q.11-2.9-2.79-2.79h-2.79v-2.79H566v-2.79h-2.79q.11-2.9-2.79-2.79h-5.59v2.79h2.79v2.79h5.59q-.11,2.9,2.79,2.79h2.79v2.79h2.79q-.11,2.9,2.79,2.79h5.59v2.79h5.59v2.79h5.59v2.79h2.79q2.9-.11,2.79,2.79h2.79q-.11,2.9,2.79,2.79h2.79v8.38H596.7q-2.9-.11-2.79,2.79h-5.59l-5.59-2.79h-5.59v-2.79h-5.59v-2.79H566q.11-2.9-2.79-2.79.11-2.9-2.79-2.79v2.79H557.6v-2.79H552v-2.79h-2.79q.11-2.9-2.79-2.79h-5.59v5.59h-5.59v-2.79h-5.59v-2.79h-2.79v-2.79h-5.59v-5.59h2.79v-2.79h5.59v-2.79h5.59q2.9.11,2.79-2.79,2.9.11,2.79-2.79,2.9.11,2.79-2.79V987.78h2.79v-5.59h2.79c.42,2.12-1.39,5.35,2.79,5.59V999h2.79V987.78h2.79q2.9.11,2.79-2.79v-2.79c-.31-.77-.48-2.11-.94-2.21-1.67-.38-1.95.86-1.85,2.21h-2.79V985H552v-8.38h11.17v-2.79h11.17V971h2.79c5.38,1.31,1.73,5.63,2.79,8.38h-5.59q-2.9-.11-2.79,2.79-.11,2.9,2.79,2.79h5.59v2.79h-2.79v2.79h8.38v2.79h2.79q-.11,2.9,2.79,2.79h2.79V999h11.17q-.11,2.9,2.79,2.79h2.79v2.79h5.59v2.79H619q-.11,2.9,2.79,2.79h2.79l5.59,2.79h5.59v2.79h-5.59q-2.9-.11-2.79,2.79h-2.79v2.79q-2.9-.11-2.79,2.79H619v5.59c-3-.4-4.82-4.16-8.38-2.79Zm-92.16,30.72h2.79v27.93h-2.79V1057.6Zm27.93-30.72h2.79q.11,2.9-2.79,2.79Zm-56.06,241.35.2.23h0Zm78.19-188.28H566c-.24-4.18-3.47-2.37-5.59-2.79q.11-2.9-2.79-2.79c-.24-4.18-3.47-2.37-5.59-2.79h-2.79q.11-2.9-2.79-2.79h-2.79q.11-2.9-2.79-2.79c-.24-4.18-3.47-2.37-5.59-2.79v-8.38H538v2.79c-.31,1.59.69,2.32,1.93,2.78,3.77,1.41,6.24-1.6,9.24-2.78H552q-.11,2.9,2.79,2.79v-2.79h2.79v2.79h2.79q.11,2.9-2.79,2.79c2.88,2.12.84,7.51,5.59,8.38q-.11,2.9,2.79,2.79h5.59q1.27,6.86-5.59,5.59v2.79h-.22Zm-8.16-36.31h2.79v2.79h-5.59Q554.7,1043.53,557.6,1043.64ZM526.71,1063c-.44,3.69,2.48,5.56,3,8.55h2.79c.24,4.18,3.47,2.37,5.59,2.79q2.9-.11,2.79,2.79h5.59v2.79H552v2.79h8.38v5.59h2.79q-.11-2.9,2.79-2.79v5.59h2.79q-.11,2.9,2.79,2.79v2.79a2.17,2.17,0,0,0-2.74,2.12c-.21,1.87.12,3.67,2.74,3.47V1214q-2.9-.11-2.79,2.79v81H566v2.79h-2.79v2.79H566v2.79h-2.79v-2.79h-2.79v-2.79h-5.59q.11-2.9-2.79-2.79.11-2.9-2.79-2.79h-5.59q.11-2.9-2.79-2.79H538q.11-2.9-2.79-2.79.11-2.9-2.79-2.79a2.17,2.17,0,0,0-2.12-2.74c-1.87-.21-3.67.12-3.47,2.74-2.52-.19-2.8,1.48-2.79,3.38q0,6.69,0,13.38h-2.79V1169.31q2.9.11,2.79-2.79V1046.43h2.79C526.88,1052,527.36,1057.56,526.71,1063Zm-58.48,220.8v2.79h-2.79v-2.79Zm15.72-3.14s-.06,0-.08,0S483.92,1280.7,484,1280.68ZM479.4,1295v2.79h-2.79V1295Zm8.38,5.59H485v-8.38h8.38v-2.79q-2.9.11-2.79-2.79h8.38v2.79h-2.79v11.17Zm53.06,25.14v2.79H538v-2.79h-5.59q.11-2.9-2.79-2.79v-5.59h2.79q-.11,2.9,2.79,2.79c.24,4.18,3.47,2.37,5.59,2.79v-2.79h2.79v5.59Zm0-19.55h-5.59v-2.79h5.59Zm19.55,16.76v-2.79h2.79v2.79ZM532.46,1295h-2.79v-2.79h2.79Zm-27.93-16.76h-2.79q-.11-2.9,2.79-2.79Zm-3.14-10.14s0,.06,0,.08S501.41,1268.12,501.4,1268.1Zm-6.63,4.27a2.93,2.93,0,0,1-.39-.21A3.38,3.38,0,0,0,494.77,1272.37Zm-12.74,6.4c-1.52-.17-2.26.28-2.51,1.19.28-1.18,1.15-1.76,2.65-1.71A.67.67,0,0,0,482,1278.76Zm-2.63-7.51c-.16-.16-.33-.39-.49-.57.16.19.33.42.49.57Zm-22.34,12.57V1281q2.9-.11,2.79,2.79Zm22.34,19.55h2.79v2.79H479.4Zm19.55,0h2.79v2.79h-2.79Zm11.17,2.79v-5.59h2.79v-2.79h-2.79v-8.38q2.9-.11,2.79,2.79h2.79V1309h-5.59ZM538,1342.47l5.59-2.79q-.11,2.9,2.79,2.79h2.79q-.11,2.9,2.79,2.79v2.79h-5.59c-.24-4.18-3.47-2.37-5.59-2.79H538Zm22.34,2.79q.11-2.9-2.79-2.79.11-2.9-2.79-2.79H552v-2.79c-.24-4.18-3.47-2.37-5.59-2.79,1.31-5.38,5.63-1.73,8.38-2.79q-.11,2.9,2.79,2.79-.11,2.9,2.79,2.79c.4,3,4.16,4.82,2.79,8.38Zm8.38-304.42h-5.59q-.11-2.9,2.79-2.79h2.79ZM538,1032.46l5.59,2.79v2.79h5.59q-.11,2.9,2.79,2.79v5.59q-2.9-.11-2.79,2.79h-2.79c-.24-4.18-3.47-2.37-5.59-2.79H538q.11-2.9-2.79-2.79h-2.79v-2.79h-5.59v-2.79h-2.79v-2.79h2.79q2.9.11,2.79-2.79v-2.79h2.79v2.79Zm-30.72,106.13v22.34c-2.59-.2-2.79,1.55-2.79,3.45q0,10.84,0,21.69h-2.79V1135.8l5.59-2.79Zm-8.38,92.16h2.79q.11-2.9-2.79-2.79v-2.79h5.59v5.59h-2.79q-.11,2.9,2.79,2.79v5.59l-5.59-2.79Zm-4.7,41.32a5.42,5.42,0,0,1-.67-.55A5.76,5.76,0,0,0,494.25,1272.07Zm-3.67,3.37c-2.63,1-6.7-2.27-7.06,2.9a1.27,1.27,0,0,1,.26.2,1.49,1.49,0,0,0-.26-.19h0l-.1-.06c-.56-.27-1-.28-1.21-.08C483.52,1272.87,487.83,1276.5,490.57,1275.44Zm-27.93-2.79v2.79h-2.79q.11,2.9-2.79,2.79v-2.79h2.79v-2.79Zm33.51,41.89h14v5.59h-8.38Q494.89,1321.39,496.16,1314.54Zm81-268.11v-2.79h2.79v2.79ZM708.41,909.58h2.79v2.79h-2.79Zm39.1,5.59h-8.38v-2.79h19.55v2.79H747.51ZM613.46,999h-2.79q.11-2.9-2.79-2.79h-2.79q.11-2.9-2.79-2.79h-2.79c-2.12-.42-5.35,1.39-5.59-2.79h-2.79q.11-2.9-2.79-2.79V985c.22.21.65.2,1.22-.08a3.73,3.73,0,0,0,1.26-1.63c.06-.1-.54-.56-.86-.88-.54.44-1.3.77-1.58,1.34s-.28,1-.07,1.22h-2.76V979.4c4.18-.24,2.37-3.47,2.79-5.59l2.79-5.59h-5.59v-8.38c3.83-2.81,3.83-5.57,0-8.38,0-2.63,0-5.26,0-7.89,0-1.91-.38-3.46-2.8-3.28v-2.79h-2.79l-2.79-5.59h8.38v2.79h8.38q-.11,2.9,2.79,2.79h2.79q-.11,2.9,2.79,2.79h2.79v2.79h5.59q2.9-.11,2.79,2.79h8.38v-2.79h2.79v2.79h2.79v2.79c.24,4.18,3.47,2.37,5.59,2.79q-.11,2.9,2.79,2.79V971c-4.18.24-2.37,3.47-2.79,5.59v14h-2.79q-2.9-.11-2.79,2.79h-2.79c-.77.31-2.11.48-2.21.94-.38,1.67.86,1.95,2.21,1.85h2.79a6.85,6.85,0,0,1-5.59,5.59h-5.59Q616.35,998.84,613.46,999ZM552,948.68h8.38c.24,4.18,3.47,2.37,5.59,2.79v2.79c-2.12.42-5.35-1.39-5.59,2.79v2.79H557.6c-2.62.2-2.62-1.59-2.85-3.47a2.17,2.17,0,0,0-2.74-2.12v-5.59Zm67-11.17q-2.9-.11-2.79,2.79h-2.79c.42-2.12-1.39-5.35,2.79-5.59H619Zm19.55,69.82H635.8v-2.79h2.79Zm0-14H635.8v-2.79h2.79Zm0-11.17h2.79V985Q638.48,985.09,638.59,982.19Zm5.59-22.34v2.79h-2.79v-2.79Zm-8.38-8.38c-.1-1.36.18-2.59,1.85-2.21.46.1.64,1.44.94,2.21Zm-64.23-8.38v2.79q-.11,2.9,2.79,2.79v2.79h-5.59v-2.79q-2.9.11-2.79-2.79v-2.79Zm424.51,223.42h-2.79v-2.79h2.79Zm41.89,229h-2.79q-.11-2.9,2.79-2.79Zm-1.4,75.41c-.16.16-.39.33-.57.49.19-.16.42-.33.57-.49l1,1.8ZM961,1512.87a1.26,1.26,0,0,1,.36.26A1.42,1.42,0,0,0,961,1512.87Zm-157.62,8.33v-2.79h2.79v2.79Zm178.74-444.06h5.59c.2,2.62-1.59,2.95-3.47,2.74A2.17,2.17,0,0,1,982.11,1077.15Zm8.38-8.38v2.79h-2.79Q987.59,1068.66,990.48,1068.77Zm-11.17,8.38c.08,1.36-.15,2.64-1.88,2.19-.47-.12-.75-1.45-.88-2.26a16.48,16.48,0,0,1,0-2.72h2.79Zm16.76,95q-.11,2.9,2.79,2.79-.11,2.9,2.79,2.79-.11,2.9,2.79,2.79v2.79h2.79q-.11,2.9,2.79,2.79v8.38h5.59V1200q-.11,2.9,2.79,2.79v2.79c1.06,2.75-2.59,7.07,2.79,8.38v8.38h-2.79v11.17h2.79v5.59c-4.18-.24-2.37-3.47-2.79-5.59h-2.79c-.42,2.12,1.39,5.35-2.79,5.59v-8.38h2.79q.11-2.9-2.79-2.79v-8.38a2.17,2.17,0,0,0,2.74-2.12c.21-1.87-.12-3.67-2.74-3.47v-5.59c.77-.31,2.11-.48,2.21-.94.38-1.67-.86-1.95-2.21-1.85q.11-2.9-2.79-2.79v-2.76c.22.21.65.2,1.22-.08a3.73,3.73,0,0,0,1.26-1.63c.06-.1-.54-.56-.86-.88-.54.44-1.3.77-1.58,1.34s-.28,1-.07,1.22h-2.76v-5.59q.11-2.9-2.79-2.79v-2.79h-2.79q.11-2.9-2.79-2.79v-2.79q.11-2.9-2.79-2.79.11-2.9-2.79-2.79v-5.59H984.9c-.24-4.18-3.47-2.37-5.59-2.79h-2.79c.24-4.18,3.47-2.37,5.59-2.79h5.59q-.11,2.9,2.79,2.79h2.79v2.79Zm30.72,89.37v2.79a6.85,6.85,0,0,0-5.59,5.59h-2.79v-5.59q2.9.11,2.79-2.79v-2.79h5.59Zm22.34,145.23q2.9-.11,2.79,2.79h-5.59Q1046.23,1406.59,1049.13,1406.7Zm83.78,53.06v2.79q-2.9.11-2.79-2.79Zm-88.15,8.42a1.26,1.26,0,0,1,.36.26A1.42,1.42,0,0,0,1044.77,1468.19ZM795,1498.86h-2.79q.11-2.9-2.79-2.79v-2.79q2.9.11,2.79-2.79h5.59v2.79q-.11,2.9,2.79,2.79-.11,2.9,2.79,2.79v2.79h-5.59Q797.89,1498.76,795,1498.86Zm231.8-318.38v-2.79h2.79Q1029.69,1180.59,1026.79,1180.48Zm-8.38,72.61v2.79h-2.79Q1015.51,1253,1018.41,1253.1Zm48.7,209.51a1.27,1.27,0,0,1,.36.26A1.42,1.42,0,0,0,1067.11,1462.6ZM989.82,1485a2.1,2.1,0,0,0-2.13,2.72h-5.59c.15-1.35-1.14-2.95-1.63-2.31-2.68,3.53-6.3,1.94-9.55,2.31-2.81-3.83-5.57-3.83-8.38,0h-2.79v2.79h2.79v2.79h-2.79v-2.79H957v-2.79h-5.59v2.79h-2.79v-2.79H943v-2.79h11.17v-2.79h16.76c2.11-.34,2.67,1.71,4,2.59,1.74-1.53,4.07-2.62,4.34-5.38h2.79v-2.79h8.38q-.11,2.9,2.79,2.79C993,1481.74,994.51,1485.11,989.82,1485Zm-97.09,8.31v-2.79h5.59q-.11,2.9,2.79,2.79v2.79h-5.59Q895.64,1493.17,892.74,1493.28ZM982.11,1228q-2.9-.11-2.79,2.79c-.77.31-2.11.48-2.21.94-.38,1.67.86,1.95,2.21,1.85v5.59q-2.9-.11-2.79,2.79v2.79h-2.79v2.79c-4.18.24-2.37,3.47-2.79,5.59v2.79h-2.79v2.79h-2.79v2.79q-2.9-.11-2.79,2.79-2.9-.11-2.79,2.79c-1.67.32-3.73-.89-5,.87-3,4.06-7.77,5.1-11.74,7.51v2.79h-2.79q-.11-2.9,2.79-2.79a6.85,6.85,0,0,0-5.59-5.59v-2.79q2.9.11,2.79-2.79h5.59v-2.79q2.9.11,2.79-2.79c2.12-.42,5.35,1.39,5.59-2.79v-2.79h5.59q-.11-2.9,2.79-2.79v-8.38h2.76c-.21.22-.2.65.08,1.22a3.73,3.73,0,0,0,1.63,1.26c.1.06.56-.54.88-.86-.44-.54-.77-1.3-1.34-1.58s-1-.28-1.22-.07v-5.56c4.18-.24,2.37-3.47,2.79-5.59V1228c4.18-.24,2.37-3.47,2.79-5.59V1214h5.59v2.79a2.17,2.17,0,0,0-2.74,2.12c-.21,1.87.12,3.67,2.74,3.47q-.11,2.9,2.79,2.79h2.79Zm-16.76,75.41h2.79v-2.79q2.9.11,2.79-2.79h2.79q2.9.11,2.79-2.79h2.79v-2.79h2.79v-2.79q2.9.11,2.79-2.79h2.79q2.9.11,2.79-2.79V1281q2.9.11,2.79-2.79h2.79v-2.79q2.9.11,2.79-2.79v-2.79h2.79q-.11,2.9,2.79,2.79v2.79c-.77.31-2.11.48-2.21.94-.38,1.67.86,2,2.21,1.85V1281h-5.59v2.79h2.79v2.79h-2.79v2.79q-2.9-.11-2.79,2.79h-2.79V1295h-2.79v2.79h-2.79v2.79H984.9c-4.18.24-2.37,3.47-2.79,5.59h-2.79q-2.9-.11-2.79,2.79-2.9-.11-2.79,2.79l-5.59-2.79v5.59l-5.59-2.79q.11-2.9-2.79-2.79v-2.79h5.59Zm47.48-33.51H1010v2.79h-2.79v-2.79H1010v-2.79h2.79Zm-78.2,223.42a4.6,4.6,0,0,0-.62-2.79h.79l-.17,0Zm.42-2.84a2.65,2.65,0,0,0,1.88-.86A2.34,2.34,0,0,1,935,1490.44Zm2.19-1.39c0-.06,0-.12.06-.19S937.25,1489,937.23,1489Zm-29.31,15.45a1.26,1.26,0,0,1,.36.26A1.42,1.42,0,0,0,907.92,1504.5Zm-1.38.3a8.54,8.54,0,0,0-2.63-.34h2.76A.58.58,0,0,0,906.54,1504.79Zm-128.31-42.23v2.79h-2.79v-2.79h2.79v-2.79H781v2.79h2.79v2.79H781v-2.79Zm-2.48,15.18a1.42,1.42,0,0,0-.26.36A1.26,1.26,0,0,1,775.75,1477.74Zm-3.24-4.67a.76.76,0,0,0,.11.67h-2.76A4.67,4.67,0,0,0,772.51,1473.06ZM655.35,1043.64v5.59h-5.59v-2.79h2.79v-2.79Zm310,184.33q-2.9-.11-2.79,2.79v5.59q-2.9-.11-2.79,2.79-2.9-.11-2.79,2.79-2.9-.11-2.79,2.79v2.79q-2.9-.11-2.79,2.79v2.79q-2.9-.11-2.79,2.79H945.8q-2.9-.11-2.79,2.79c-2.12.42-5.35-1.38-5.59,2.79-2.12.42-5.35-1.39-5.59,2.79H929q-2.9-.11-2.79,2.79-2.9-.11-2.79,2.79h-2.79c-.57-4.49-5.78-2.23-7.46-5.11l-.92,2.32H906.7q.11-2.9-2.79-2.79h-5.59q.11-2.9-2.79-2.79v-2.79a2.17,2.17,0,0,0,2.74-2.12c.21-1.87-.12-3.67-2.74-3.47v-16.76h2.79c-1.43-5.13,3.26-9,2.79-14l2.79-5.59,2.79-5.59c4.18-.24,2.37-3.47,2.79-5.59v-2.79q2.9.11,2.79-2.79l5.59-2.79v-2.79l5.59-2.79v-2.79H929v-2.79h5.59q-.11-2.9,2.79-2.79c2.12-.42,5.35,1.38,5.59-2.79h2.79c.24,4.18,3.47,2.37,5.59,2.79h2.79l5.59,2.79q-.11,2.9,2.79,2.79v5.59q-.11,2.9,2.79,2.79V1228Zm41.89,164.78H1010v14c-5.38-1.31-1.73-5.63-2.79-8.38q.11-2.9-2.79-2.79t-2.79-2.79Zm22.34,14h2.79v2.79h-2.79Zm19.55,36.31h-2.79v-2.79h5.59Q1052,1443.11,1049.13,1443Zm-48.87-11.17c.16-.31.34-.61.5-.92-.16.31-.34.61-.5.92l-1-1Zm-27.93,30.72h0c-.16-.31-.34-.61-.5-.92C972,1461.94,972.18,1462.25,972.33,1462.56Zm-48.87,19.55a4.6,4.6,0,0,0-.62-2.79h.62ZM856.08,1458s0,.06,0,.08S856.1,1458,856.08,1458ZM984.9,1133.63h0c.16-.2.27-.42.41-.62h5.18A17.11,17.11,0,0,0,984.9,1133.63Zm-2.79,214.42h-2.79v-2.79h2.79Zm24.19,64.81c.46.1.64,1.44.94,2.21h-2.79C1004.35,1413.72,1004.63,1412.49,1006.3,1412.87Zm-24.19,45.5-.22-.25.22.25Zm-73.65,26.19s-.06,0-.08,0S908.43,1484.57,908.46,1484.56Zm-.54-2.4a1.26,1.26,0,0,1,.36.26A1.42,1.42,0,0,0,907.92,1482.15Zm-1.39.36a5.11,5.11,0,0,1-1.84-1,2.83,2.83,0,0,0,2,.56A.6.6,0,0,0,906.53,1482.51Zm.83-.54a.76.76,0,0,0-.67.11v-2.76h-2.79a3.91,3.91,0,0,0,.12,1.11,3.65,3.65,0,0,1-.12-1.11v-2.79h2.79v2.79A4.67,4.67,0,0,0,907.37,1482Zm-3-.75a2.25,2.25,0,0,1-.27-.47A2.05,2.05,0,0,0,904.41,1481.22Zm-45.19-28.33a1.89,1.89,0,0,1,1.55-1.25A2,2,0,0,0,859.22,1452.88Zm-61.44,26.43H795v-2.79h-2.79v-2.79q2.9-.11,2.79,2.79h2.79Zm-162-150.81c.24-4.18,3.47-2.37,5.59-2.79H647v2.79h-2.79v2.79h-5.59v-2.79Zm310-170.36v2.79h-5.59v2.79q-2.9-.11-2.79,2.79h-5.59v2.79H929v2.79h-5.59v2.79h-2.79v2.79q-2.9-.11-2.79,2.79h-5.59v5.59q-2.9-.11-2.79,2.79a6.85,6.85,0,0,0-5.59,5.59h-5.59v8.38c-3.09-.07-6.44-.53-5.62,4.44a24.46,24.46,0,0,1,0,3.94V1214h-2.79v8.38h-2.79v8.38h-2.79v5.59h-2.79v8.38h-2.79v25.14A2.17,2.17,0,0,0,876,1272c-.21,1.87.12,3.67,2.74,3.47v2.79c1.06,2.75-2.59,7.07,2.79,8.38v5.59q-.11,2.9,2.79,2.79v5.59q-.11,2.9,2.79,2.79v2.79q.11,2.9-2.79,2.79.11-2.9-2.79-2.79v-2.79h-2.79v-2.79l-5.59-2.79V1295l-5.59-11.17v-8.38c-1.06-2.75,2.59-7.07-2.79-8.38v-22.34c.77-.31,2.11-.48,2.21-.94.38-1.67-.86-1.95-2.21-1.85v-19.55h2.79v-2.79c4.18-.24,2.37-3.47,2.79-5.59v-2.79h2.79v-2.79H876V1200h2.79v-5.59q2.9.11,2.79-2.79v-2.79h2.79v-2.79q2.9.11,2.79-2.79h2.79v-2.79h2.79v-2.79q2.9.11,2.79-2.79v-2.79q2.9.11,2.79-2.79,2.9.11,2.79-2.79h2.79v-2.79h8.38q2.9.11,2.79-2.79v-2.79h5.59v-2.79h2.79q2.9.11,2.79-2.79h8.38q2.9.11,2.79-2.79H943C943.41,1152.73,947.17,1154.58,945.8,1158.14ZM942,1291.85s-.06,0-.08,0S941.95,1291.87,942,1291.85Zm-1.92-2.11a8.53,8.53,0,0,0-2.63-.34h2.76A.58.58,0,0,0,940.05,1289.75Zm-69.66,158.85v-2.79h2.79Q873.29,1448.7,870.39,1448.59Zm-55.86,0h-2.79v-2.79h2.79Zm-89.37-55.86H728v-2.79h-2.79v-2.79h-2.79v-2.79H728v-2.79q-2.9.11-2.79-2.79h-5.59V1376q-2.9.11-2.79-2.79h2.79V1376h5.59v2.79H728v2.79h2.79v-2.79h2.79c-.2,2.62,1.59,2.62,3.47,2.85a2.17,2.17,0,0,1,2.12,2.74q.11,2.9-2.79,2.79c-.12,2.73,2.31,3.73,3.86,5.09,2.07,1.82,1.7,3.91,1.73,6.08h-2.79q.11-2.9-2.79-2.79v2.79h-2.79v-2.79h-2.79q.11-2.9-2.79-2.79v2.79h-2.79Zm-61.44-337.93V1052h5.59v2.79q-2.9-.11-2.79,2.79h-2.79Zm290.45,58.65v-5.59H957v5.59Zm-41.89,36.31c-2.12.42-5.35-1.39-5.59,2.79h-2.79q-2.9-.11-2.79,2.79h-2.79q-2.9-.11-2.79,2.79h-2.79q.11,2.9-2.79,2.79t-2.79,2.79h-2.79q-2.9.11-2.79-2.79,2.9.11,2.79-2.79h5.59v-2.79q2.9.11,2.79-2.79h2.79q2.9.11,2.79-2.79h2.79q2.9.11,2.79-2.79h5.59q2.9.11,2.79-2.79h2.79q2.9.11,2.79-2.79h5.59V1147h-2.79q-2.9-.11-2.79,2.79Zm22.34,167.57v2.79H929v-2.79Zm-173.15,95h-2.79v-2.79q2.9.11,2.79-2.79c2.63,0,5.26,0,7.89,0,1.91,0,3.46-.38,3.28-2.8q2.9.11,2.79-2.79v-2.79H781c-.21.22-.2.65.08,1.22a3.73,3.73,0,0,0,1.63,1.26c.1.06.56-.54.88-.86-.44-.54-.77-1.3-1.34-1.58s-1-.28-1.22-.07v-2.76q2.9.11,2.79-2.79h2.79q-.11,2.9,2.79,2.79h2.79v2.79h5.59l2.79,5.59c2.22,0,4.5.48,6.1-1.86,1.28-1.87,3.38-.59,5.07-.93v-2.79h5.59l2.79,5.59c5.5-.26,10.7.26,14,5.59v2.79h-8.38v-2.79c-.31-.77-.48-2.11-.94-2.21-1.67-.38-1.95.86-1.85,2.21-4.18.24-2.37,3.47-2.79,5.59h-2.79q.11-2.9-2.79-2.79h-2.79q.11-2.9-2.79-2.79h-2.79q.11-2.9-2.79-2.79h-2.79v-2.79H795c-.24-4.18-3.47-2.37-5.59-2.79v5.59h2.79v2.79h5.59q-.11,2.9,2.79,2.79h2.79q-.11,2.9,2.79,2.79H809v2.79h5.59v2.79q-2.9-.11-2.79,2.79c-.77.31-2.11.48-2.21.94-.38,1.67.86,1.95,2.21,1.85v11.17h-5.59q.11-2.9-2.79-2.79.11-2.9-2.79-2.79h-2.79c-1.17-2.34,3.67-2.59,2-5.2-2.39-.52-4.61-1.05-4.76,2.41h-2.79q.11-2.9-2.79-2.79h-2.79c-1.19-3.06,2.1-5.11,2.3-8-5.56-1.38-5.15,2.08-5.09,5.21H781q.11-2.9-2.79-2.79h-2.79v-2.79h-5.59v-2.79h-5.59Q764.37,1412.18,761.47,1412.29Zm-22.34,19.55V1429h2.79v2.79Zm-8.38-58.65H728q.11-2.9-2.79-2.79h-2.79v-2.79q2.9.11,2.79-2.79H728q-.11,2.9,2.79,2.79-.11,2.9,2.79,2.79h5.59c-.42,2.12,1.39,5.35-2.79,5.59h-2.79Q733.65,1373.08,730.75,1373.19Zm-78.2-39.1h2.79v2.79h2.79v2.79h-2.79v-2.79h-2.79ZM647,1060.39h2.79v2.79H647Zm231.8,251.35q-.11,2.9,2.79,2.79h2.79q-.11,2.9,2.79,2.79-.11,2.9,2.79,2.79h5.59v5.59h2.79v2.79h-5.59c-2.63,0-5.26,0-7.89,0-1.91,0-3.46.38-3.28,2.8-7.6-.32-14.53,4.8-22.34,2.79v2.79H842.47v2.79H822.92v2.79h-2.79q.11-2.9-2.79-2.79v5.59h2.79v2.79c-3.29,2.65-7.13,3.13-11.17,2.79h-5.59v-11.17h8.38v-2.79h14q-.11-2.9,2.79-2.79h14c.24-4.18,3.47-2.37,5.59-2.79h11.17q-.11-2.9,2.79-2.79l-2.79-5.59h10.5c.83-3.14,1.44-5.37-2.12-5.59-2.12.42-5.35-1.39-5.59,2.79h-14v-5.59H836.88v-2.79h11.17l5.59-2.79q-.11-2.9,2.79-2.79V1309h-2.79v2.79H862q2.9.11,2.79-2.79H876v2.79ZM862,1408.1l-1,1,1-1Zm-195.5-71.19a.58.58,0,0,0,.34.13,8.54,8.54,0,0,0-.34,2.63Zm2.45-1.79s0,.06,0,.08S669,1335.15,669,1335.12Zm-2.4.54a1.26,1.26,0,0,1,.26-.36A1.41,1.41,0,0,0,666.56,1335.66Zm-.07,1.22h-2.76a4.67,4.67,0,0,0,2.65-.67A.76.76,0,0,0,666.49,1336.88Zm53.09,27.93h-2.79V1362q-2.9-.11-2.79,2.79H711.2q.11-2.9-2.79-2.79.11-2.9-2.79-2.79H700q.11-2.9-2.79-2.79.11-2.9-2.79-2.79h-2.79q.11-2.9-2.79-2.79h-2.79q.11-2.9-2.79-2.79c-.24-4.18-3.47-2.37-5.59-2.79-.24-4.18-3.47-2.37-5.59-2.79v-2.79h5.59l5.59,2.79h2.79c.24,4.18,3.47,2.37,5.59,2.79q-.11,2.9,2.79,2.79-.11,2.9,2.79,2.79H700q-.11,2.9,2.79,2.79h2.79q-.11,2.9,2.79,2.79h2.79q-.11,2.9,2.79,2.79h2.79V1362h2.79ZM862,1300.57h-2.79v2.79H862v2.79h-2.79v-2.79h-14q-2.9-.11-2.79,2.79h-8.38q.11-2.9-2.79-2.79H811.74v2.79h-8.38V1183.28H809c3,.4,4.82,4.16,8.38,2.79V1174.9h8.38q2.9.11,2.79-2.79v-2.79h2.79q-.11,2.9,2.79,2.79h5.59v2.79c.42,2.12-1.39,5.35,2.79,5.59v-2.79q2.9-.11,2.79,2.79h-2.79v2.79q-2.9-.11-2.79,2.79v8.38c-2.65-.2-2.68,1.61-2.82,3.5s1,4.86-2.77,4.88v8.38c-4.18.24-2.37,3.47-2.79,5.59v19.55h-8.38v2.79q-2.9-.11-2.79,2.79c-4.18.24-2.37,3.47-2.79,5.59,1.06,2.75-2.59,7.07,2.79,8.38h2.79q-.11,2.9,2.79,2.79t2.79,2.79h2.79v16.76h2.79v8.38h5.59c.31.77.48,2.11.94,2.21,1.67.38,1.95-.86,1.85-2.21v-2.79h2.79v-8.38h2.79V1281h2.79v5.59h2.79v2.79h2.79V1295h2.79v2.79H862Zm72.61,44.69v-2.79h2.79v2.79h2.79v2.79h-2.79v-2.79h-2.79v2.79c-2.12-.42-5.35,1.39-5.59-2.79Zm19.55,55.86v14c-2.42-.17-2.8,1.38-2.8,3.28,0,2.63,0,5.26,0,7.89H945.8c-3,.94-5-1.67-8.38-2.51v5.3h-5.59c-.37-2.25,1.94-2.75,2.6-4-.65-3-5.79,0-5.39-4.39h-2.79q-2.9.11-2.79-2.79t-2.79-2.79h-2.79q.11-2.9-2.79-2.79v-2.79h5.59v-2.79l5.59,2.79v-2.79h5.59q-.11,2.9,2.79,2.79v-2.79h2.79v2.79q2.9.11,2.79-2.79,2.9.11,2.79-2.79h5.59v-2.79h5.59Zm-18.74-350.38c1.14-1,1.73-.5,1.67-.4a3.73,3.73,0,0,1-1.26,1.63,1.65,1.65,0,0,1-.88.21,8.54,8.54,0,0,0-.34,2.63V1052a.58.58,0,0,0,.34.13c.11-.41.27-.89.47-1.44a9.27,9.27,0,0,1-1,.62.76.76,0,0,0,.11.67h-2.76a4.67,4.67,0,0,0,2.65-.67,2.17,2.17,0,0,1,.19-.56C935,1050.22,935.71,1049.89,935.44,1050.73ZM909.49,1133H898.32q-2.9-.11-2.79,2.79h-5.59v2.79h-8.38v2.79h-2.79v2.79h-5.59V1147H867.6l-2.79,5.59q-2.9-.11-2.79,2.79-2.9-.11-2.79,2.79l-2.79,5.59h-2.79v-2.79q.11-2.9-2.79-2.79.11-2.9-2.79-2.79v-5.59h11.17V1147h-8.38v-2.79q2.9.11,2.79-2.79V1133h2.79q-.11,2.9,2.79,2.79V1133H862a2.17,2.17,0,0,0,2.74-2.12c.21-1.87-.12-3.67-2.74-3.47h-2.79v-2.79h5.59q2.9.11,2.79-2.79h2.79c.31.77.48,2.11.94,2.21,1.67.38,1.95-.86,1.85-2.21h5.59v-5.59h2.79c.24,4.18,3.47,2.37,5.59,2.79q-1.27-6.86,5.59-5.59h8.38c3.29-2.65,7.13-3.13,11.17-2.79v-2.79h2.79c4.18.24,2.37,3.47,2.79,5.59v16.76C915.12,1131.28,910.8,1127.62,909.49,1133Zm-64.23,58.65v-5.59q2.9.11,2.79-2.79h2.79q-.11,2.9,2.79,2.79v5.59q-2.9-.11-2.79,2.79v2.79h-2.79c-5.38,1.31-1.73,5.63-2.79,8.38h-2.79v-11.17Q845.36,1194.55,845.26,1191.66Zm-8.38-25.14h-2.79v-8.38h8.38q-.11,2.9,2.79,2.79v2.79c-2.62-.2-2.62,1.59-2.85,3.47a2.17,2.17,0,0,1-2.74,2.12Q839.78,1166.41,836.88,1166.52Zm18.71,239.65a1.68,1.68,0,0,1-.68.39A2.06,2.06,0,0,0,855.59,1406.17Zm-2,.53a3.9,3.9,0,0,0,1.26-.13A3.88,3.88,0,0,1,853.64,1406.7Zm39.1-64.23c-.24,4.18-3.47,2.37-5.59,2.79v-2.79Zm41.89,50.27c-.1-1.36.18-2.59,1.85-2.21.46.1.64,1.44.94,2.21Zm-29.56,30.38a.4.4,0,0,0,.23-.05A.31.31,0,0,1,905.07,1423.11Zm4.09-4.18s0,0,0,.05S909.17,1418.95,909.16,1418.93Zm-79.49-37.16.23-.2h0Zm-26.3,1.19c-.23-.23-.5-.64-.72-.8.22.17.49.57.72.8Zm120.09-16.76c-.23-.23-.5-.64-.72-.8.22.17.49.57.72.8Zm-16.76-12.57h-2.79v-2.79c2.12.42,5.35-1.39,5.59,2.79Zm-60,22.34-1,1,1-1a8.73,8.73,0,0,1,.87,1.87A8.72,8.72,0,0,0,846.65,1376Zm54.46,5.59h5.59v2.79H895.53q-2.9.11-2.79-2.79ZM929,1398.32q2.9-.11,2.79,2.79H929Zm-131.26-86.58v22.34c-4.37-.47-1.56,4.36-4,5.37-2.71-1.13-1.23-3.53-1.62-5.37-.6-2.72,1.49-6-1.37-8.15-2.69.9.06,5.73-4.22,5.35v-16.76h-2.79V1135.8c-.42-2.12,1.39-5.35-2.79-5.59v-5.59h2.76c-.21.22-.2.65.08,1.22a3.73,3.73,0,0,0,1.63,1.26c.1.06.56-.54.88-.86-.44-.54-.77-1.3-1.34-1.58s-1-.28-1.22-.07v-2.76q-.11-2.9,2.79-2.79c.24,4.18,3.47,2.37,5.59,2.79v5.59h5.59v184.33ZM683.28,1074.36v-2.79h2.79v5.59h-5.59v-2.79Zm-25.14,53.06V1119c4.18.24,2.37,3.47,2.79,5.59v36.31h-2.79v-33.51ZM926.25,1119h-2.79v-2.79h2.79ZM677.69,1135.8l5.59-2.79v5.59h-5.59ZM700,1079.94h2.79v2.79H700Zm36.31,2.79h2.79v2.79h-2.79ZM767.06,1119h-2.79v-2.79h2.79Zm-72.61,22.34v-2.79h2.79c-.42,2.12,1.39,5.35-2.79,5.59Zm11.17-27.93v-5.59h2.79v30.72q-2.9.11-2.79-2.79c0-2.63,0-5.26,0-7.89,0-1.91-.38-3.46-2.8-3.28v-2.79C708.21,1120.53,704.55,1116.2,705.62,1113.46Zm48.06,12.11c.1-.46,1.44-.64,2.21-.94v2.79C754.53,1127.52,753.29,1127.24,753.67,1125.57ZM750.3,1309v2.79h-5.59v-53.06c2.64.2,2.79-1.6,2.79-3.49q0-16.41,0-32.81h2.79v41.89c-.77.31-2.11.48-2.21.94-.38,1.67.86,1.95,2.21,1.85v36.31a2.17,2.17,0,0,0-2.74,2.12C747.35,1307.36,747.68,1309.15,750.3,1309Zm-8.38,5.59h-2.79v-2.79h2.79Zm-22.34,5.59v-2.79h2.79v2.79Zm-16.76-153.6v-2.79h2.79v5.59h2.79v2.79c-2.63-.2-2.79,1.59-2.79,3.48q0,15,0,30v41.89h-2.79v-81Zm50.27-61.44v2.79q-2.9-.11-2.79,2.79t-2.79,2.79v-8.38q2.9.11,2.79-2.79Q753.2,1102.18,753.1,1105.08Zm-14,150.81v36.31h-2.79v-47.48h2.79v11.17Zm2.79-86.58v2.79h-2.79v-2.79Zm-5.59,19.55h2.79v2.79h-2.79Zm5.59-33.51h-2.79v2.79h-2.79v-2.79h2.79q.11-2.9-2.79-2.79V1147l5.59-2.79Zm-22.34,0q2.9-.11,2.79,2.79h-2.79Zm-8.38,55.86H714v5.59H711.2Zm5.59-103.33H714v-2.79h2.79ZM697.24,1211.2h-2.79v-5.59h2.79Zm27.93-114.51h-5.59q-.11-2.9,2.79-2.79h2.79Zm-27.93,53.06h-2.79V1147Q697.35,1146.86,697.24,1149.76Zm-2.79,11.17v-2.79h2.79v19.55h-2.79v-16.76Zm-16.76,111.71q.11,2.9-2.79,2.79v-2.79Zm8.38-44.69v-39.1h2.79v55.86h-2.79Zm0,61.44v-41.89h2.79v44.69h-2.79Zm75.41-64.23v67c-.77.31-2.11.48-2.21.94-.38,1.67.86,1.95,2.21,1.85v11.17c-2.62-.2-2.62,1.59-2.85,3.47a2.17,2.17,0,0,1-2.74,2.12v-25.14a2.17,2.17,0,0,0,2.74-2.12c.21-1.87-.12-3.67-2.74-3.47v-5.59a2.17,2.17,0,0,0,2.74-2.12c.21-1.87-.12-3.67-2.74-3.47v-2.79c3.78-3.53,3.78-7.64,0-11.17v-2.79c2.48.18,2.8-1.43,2.79-3.34q0-5.31,0-10.63v-22.34h2.79v8.38Zm8.38-89.37V1133h5.59v2.79Zm41.89-44.69h2.79q2.9-.11,2.79,2.79-2.9-.11-2.79,2.79H809v-2.79Q811.85,1094,811.74,1091.11Zm61.44-8.38v2.79l-5.59-2.79h-2.79v-5.59c2.12.42,5.35-1.39,5.59,2.79h2.79Zm-23.46,8.62c1.77,2.44-.15,2.34-1.67,2.55q.11,2.9-2.79,2.79v-2.79q.11-2.9-2.79-2.79h-2.79v-2.79h8.38A27,27,0,0,0,849.73,1091.36Zm-26.81,10.93q.11-2.9-2.79-2.79v-2.79h2.79q2.9.11,2.79-2.79h2.79q-.11-2.9,2.79-2.79v2.79H828.5v8.38Zm5.59-14h-2.79q-2.9.11-2.79-2.79h5.59Zm16.76,11.17h2.79v2.79h-2.79Zm-11.17,11.17h-2.79v-2.79c2.12.42,5.35-1.38,5.59,2.79Zm11.17-2.79v-2.79h2.79v2.79ZM700,1088.32v8.38h-2.79v-11.17H700Zm223.42-27.93v-2.79c.91,0,1.83,0,2.74,0,1.36-.06,2.64.15,2.26,1.86-.1.46-1.45.76-2.26.9A16.27,16.27,0,0,1,923.46,1060.39ZM672.1,1174.9h-5.59v-2.79l5.59-2.79Zm-16.76,30.72h2.79v5.59h-2.79ZM686.07,1309h2.79v2.79h-2.79ZM714,1342.47h2.79v2.79H714Zm64.23-237.39H781v2.79h-2.79Zm11.17,2.79q2.9.11,2.79-2.79,2.9.11,2.79-2.79h5.59v2.79q-2.9-.11-2.79,2.79-2.9-.11-2.79,2.79-2.9-.11-2.79,2.79H789.4ZM800.57,1119v-8.38q2.9.11,2.79-2.79H809v2.79q-.11,2.9,2.79,2.79V1119h-5.59q-2.9-.11-2.79,2.79h-2.79Zm-117.3-27.93h-2.79v-2.79h2.79ZM658.14,1309h2.79v2.79h-2.79Zm111.71,19.55V1163.73q2.9-.11,2.79,2.79h2.79V1200h2.79v162h-5.59V1328.5Zm95-162H862v-2.79Q864.91,1163.62,864.81,1166.52Zm50.27-86.58q-.11-2.9,2.79-2.79v2.79Zm-64.23-25.14h-2.79V1052h2.79Zm-201.08,72.61h2.79v8.38h-2.79v-8.38Zm25.14,189.91h2.79v2.79H674.9Zm156.4-67v-2.79q2.9.11,2.79-2.79h2.79c3.83.68,3.4,2.74,1.74,5.26-.65,1-1.16,2.07-1.74,3.11h-5.59Zm16.76-5.59v2.79h-2.79v-2.79Zm2.79-22.34h-2.79v-2.79h2.79Zm16.76-58.65h2.79v2.79H867.6Zm77.09-56.16s.05,0,.08,0S944.71,1107.57,944.69,1107.56Zm-1.84-2.14a8.54,8.54,0,0,0-2.63-.34H943A.58.58,0,0,0,942.85,1105.42ZM700,1063.19V1066h-2.79v-2.79Zm-25.14,16.76v2.79H672.1v8.38h-2.79v-8.38h2.79Q672,1079.84,674.9,1079.94Zm-11.17,8.38v5.59h-2.79v-22.34h2.79v16.76ZM652.55,1119v2.79h-2.79V1119Zm16.76,198.29v2.79h-2.79Q666.41,1317.22,669.31,1317.33Zm78.2,64.23c.75,0,1.5,0,2.67-1.4.16-.85.58-1.93.2-2.55-.07-.11,1-.92.75,1.26,2.57-.76,2.67,2,.42,2.45a2.42,2.42,0,0,1-.86.05c-.35,3.4.22,5.58-3.19,5.78Zm39.1,2.79h5.59v2.79h-5.59Zm117.3-50.27v-2.79h2.79Q906.81,1334.19,903.91,1334.09ZM862,1292.2h2.79V1295H862Zm-2.79-2.79v-2.79H862Q862.12,1289.51,859.22,1289.4Zm-2.79-5.59V1281h2.79Q859.33,1283.92,856.43,1283.82Zm11.17-103.33v2.79h-2.79v5.59H862v-8.38q2.9.11,2.79-2.79v-2.79h5.59v-2.79q2.9-.11,2.79,2.79.11,2.9-2.79,2.79v2.79Zm8.38-11.17v-2.79q2.9-.11,2.79,2.79Zm5.59-22.34h2.79v2.79h-2.79Zm39.1-14h2.79v2.79h-2.79Zm11.17-2.79q-.11-2.9,2.79-2.79Q934.73,1130.32,931.84,1130.21Zm12.39-25.09a1.26,1.26,0,0,1,.36.26A1.41,1.41,0,0,0,944.23,1105.12Zm-.56-.19a.76.76,0,0,0-.67.11v-2.76A4.67,4.67,0,0,0,943.67,1104.94ZM641.38,1306.16h-2.79v-2.79h2.79Zm243,78.2h2.79v2.79h-2.79ZM882.14,1416c.1-.46,1.44-.64,2.21-.94v2.79C883,1418,881.76,1417.7,882.14,1416Zm63.66,24.19h2.79V1443H945.8Zm5.59-53.06h-2.79v-5.59h5.59v2.79Q951.28,1384.25,951.39,1387.15Zm-47.48-248.56q2.9-.11,2.79,2.79h-2.79Zm36.31-16.76q-.11-2.9,2.79-2.79v2.79Zm-5.59-92.16v-2.79h2.79Q937.53,1029.78,934.63,1029.67Zm-22.34-2.79q-2.9.11-2.79-2.79h2.79Zm-220.63,33.51h-2.79v-2.79h2.79Zm-50.27,173.15h2.79v2.79h-2.79Zm106.13,167.57v2.79h2.79v2.79h-2.79v-2.79h-2.79v-2.79ZM805.58,1456c-.1.46-1.44.64-2.21.94v2.79h-2.79V1457h2.79v-2.79C804.72,1454.08,806,1454.36,805.58,1456Zm-5.59-8.38c-.1.46-1.44.64-2.21.94v-2.79C799.14,1445.7,800.37,1446,800,1447.65Zm-7.8-6.81h0q0-.31,0-.62,2.9.11,2.79-2.79C795.06,1439.36,794.13,1440.29,792.2,1440.84Zm-5.59-9c-2,.4-5-1.18-4.44,2.81-.53-.24-.93-.24-1.14,0C781.28,1430.46,784.5,1432.26,786.61,1431.84Zm-4,3.1a1.42,1.42,0,0,0-.36-.26A1.26,1.26,0,0,1,782.6,1434.94Zm.18,2.14s-.06,0-.08,0S782.76,1437.09,782.78,1437.08Zm20.58,5.93h-2.79v-2.79h2.79Zm-11.17,16.76H795v2.79h-2.79Zm66.29-30.5a6.83,6.83,0,0,1,2.6-.21A7.1,7.1,0,0,0,858.48,1429.26Zm1.91-25.41a2.42,2.42,0,0,0,1.41-1.6,3,3,0,0,0-2.93-1.05,2.94,2.94,0,0,1,2.93,1.05A2.41,2.41,0,0,1,860.39,1403.85Zm24-11.11v2.79c-2.12.42-5.35-1.39-5.59,2.79-5.49-.22-5.62-.48-2.79-5.59Zm-12.15,19.1a1.39,1.39,0,0,1-.53.3A2,2,0,0,0,872.21,1411.83Zm.65,18.27s0,0,0,.05S872.86,1430.12,872.85,1430.1Zm2.81-23.33c.93-.3,1.89.09,2.89,1.06A3,3,0,0,0,875.67,1406.77Zm-4,5.38a3.85,3.85,0,0,1-1.25.13A3.91,3.91,0,0,0,871.65,1412.15ZM906.7,1457h2.79v-2.79h2.79V1457h-2.79v2.79H906.7Zm58.65-50.27h-2.79q-.11-2.9,2.79-2.79Zm-50.27-81v-2.79h2.79Q918,1325.82,915.08,1325.71Zm-2.79-5.59v2.79H906.7v-5.59h2.79v2.79Zm-14-11.17h-2.79v-2.79h2.79ZM929,1141.38h2.79v2.79H929Zm14-53.06q-2.9-.11-2.79,2.79h-8.38v-2.79h2.79q2.9.11,2.79-2.79,2.9.11,2.79-2.79H943q2.9-.11,2.79,2.79Q942.9,1085.42,943,1088.32ZM755.89,1431.84H753.1V1429h-5.59v-2.79h-2.79v-2.79h2.79v2.79h2.79v-2.79q2.9.11,2.79-2.79h-5.59v-2.79h2.79q2.9-.11,2.79,2.79h2.79q-.11-2.9,2.79-2.79h2.79q-.11,2.9,2.79,2.79h2.79v2.79q-2.9-.11-2.79,2.79h-2.79c-4.18.24-2.37,3.47-2.79,5.59h11.17V1429h5.59v2.79q2.9-.11,2.79,2.79H781a.58.58,0,0,0-.13.34,8.54,8.54,0,0,0-2.63-.34h-2.79v-2.79h-5.59v2.79q-2.9-.11-2.79,2.79,2.9-.11,2.79,2.79h-2.79v-2.79h-2.79v-2.79h-5.59v-2.79Zm55.86,30.75a.58.58,0,0,0,.34.13,8.54,8.54,0,0,0-.34,2.63Zm0-1.25a1.26,1.26,0,0,1,.26-.36A1.42,1.42,0,0,0,811.79,1461.33Zm-.07,1.22H809a4.67,4.67,0,0,0,2.65-.67A.76.76,0,0,0,811.72,1462.56Zm25.16-11.17h-2.79v-2.79H828.5v-2.79h-5.59V1443h5.59v2.79h5.59v2.79h2.79Zm-5.59-16.13h0q0-.31,0-.62c2.12.42,5.35-1.39,5.59,2.79C836.64,1433.24,833.41,1435.05,831.29,1435.25Zm31.42-3.44a3.63,3.63,0,0,0,1.83-1.37A3.62,3.62,0,0,1,862.71,1431.81Zm4.89-39.08h2.79q.11,2.9-2.79,2.79Zm1.4,41.49a.31.31,0,0,1-.23.05A.41.41,0,0,0,869,1434.23Zm12.57,8.78h8.38v2.79h-8.38Zm27.93,22.34h2.79v2.79h-2.79Zm67-53.06h-2.79v-2.79h2.79v2.79q2.9-.11,2.79,2.79Q976.41,1415.19,976.52,1412.29Zm-2.79-19.55h-2.79v2.79c-4.18.24-2.37,3.47-2.79,5.59-2.12-.42-5.35,1.39-5.59-2.79h-2.79v-2.79q-2.9.11-2.79-2.79h5.59v-2.79a2.17,2.17,0,0,0,2.74-2.12c.21-1.87-.12-3.67-2.74-3.47v-2.79c3.56-1.37,5.41,2.39,8.38,2.79v5.59h2.79Zm-16.76-67v5.59H926.25q.11-2.9-2.79-2.79h-2.79v-2.79h14c.24,4.18,3.47,2.37,5.59,2.79q2.9.11,2.79-2.79h14Zm-32.57-14.54c-.46-.1-.64-1.44-.94-2.21h2.79C926.35,1310.31,926.07,1311.55,924.4,1311.17Zm-8.38-2.79c-.46-.1-.64-1.44-.94-2.21h-2.79c-.42,2.12,1.39,5.35-2.79,5.59q.11-2.9-2.79-2.79h-2.79q.11-2.9-2.79-2.79v-2.79h-2.79v-2.79c-.42-2.12,1.39-5.35-2.79-5.59q.11-2.9-2.79-2.79v-8.38h-2.79V1281c-.42-2.12,1.39-5.35-2.79-5.59v-5.59h2.79q-.11,2.9,2.79,2.79v11.17h2.79c.42,2.12-1.39,5.35,2.79,5.59q-.11,2.9,2.79,2.79-.11,2.9,2.79,2.79-.11,2.9,2.79,2.79v2.79h5.59v2.79h2.79v2.79h2.79C918,1307.52,917.69,1308.75,916,1308.37Zm45.29-175.69c-1.85,1.86-1.46,3.84-1.55,5.91q-2.9-.11-2.79,2.79h-5.59q.11-2.9-2.79-2.79.11-2.9-2.79-2.79V1133c4.18-.24,2.37-3.47,2.79-5.59H957c.31.77.48,2.11.94,2.21,1.67.38,1.95-.86,1.85-2.21C963.71,1128.16,963.43,1130.56,961.31,1132.68ZM641.38,1057.6v2.79q-2.9.11-2.79-2.79Zm-2.79,27.93v8.38H635.8v-8.38Zm67,298.83v-2.79q2.9-.11,2.79,2.79Zm19.55,30.72H728v2.79h-2.79Zm5.59,14v-2.79c4.18.24,2.37,3.47,2.79,5.59h-2.79Zm27.93,11.17q2.9-.11,2.79,2.79h-2.79Zm55.51,20.58s0,.06,0,.08S814.21,1460.83,814.19,1460.8Zm40.62-26.32a3.57,3.57,0,0,1-.5.1A3.57,3.57,0,0,0,854.82,1434.48Zm26.75,19.7q2.9-.11,2.79,2.79h-2.79Zm103.33-27.93v-2.79h2.79v2.79Zm13.39-20.49c-.1.46-1.44.64-2.21.94v-2.79C997.43,1403.81,998.66,1404.09,998.28,1405.76Zm8.43,36.31a5.71,5.71,0,0,1-.6.72A5.68,5.68,0,0,0,1006.71,1442.07Zm.37-.7a3.11,3.11,0,0,1-.3.56A3.31,3.31,0,0,0,1007.08,1441.37Zm8.54,3c-.31-.16-.61-.34-.92-.5.31.16.61.34.92.5Zm-12.57-43.29h0l1,1.8Zm-14.78-1.85c.1-.46,1.44-.64,2.21-.94v2.79C989.13,1401.22,987.89,1400.94,988.27,1399.27Zm-11.75-14.91a4.6,4.6,0,0,0-.62-2.79h3.42v2.79Zm-55.86-83.78h-2.79q-.11-2.9,2.79-2.79Zm20.77-11.13a1.26,1.26,0,0,1,.36.26A1.42,1.42,0,0,0,941.44,1289.45Zm-1.23-.07q.07-2.12-1.5-2.62c.95.3,1.63,1.09,2.36,2.54A.87.87,0,0,0,940.21,1289.38Zm-2.79-2.77a3.81,3.81,0,0,1,1.18.13A3.9,3.9,0,0,0,937.42,1286.61Zm11.17-128.47c-.1-1.36.18-2.59,1.85-2.21.46.1.64,1.44.94,2.21ZM716.79,1406.7q.11-2.9-2.79-2.79v-5.59H711.2v-2.79h-2.79v-2.79l2.79-5.59H714q2.9-.11,2.79,2.79h2.79v2.79h-2.79q-.11,2.9,2.79,2.79-.11,2.9,2.79,2.79v2.79h2.79v5.59h-8.38Zm8.38,22.34H728v2.79h-2.79ZM753.1,1457h2.79v2.79H753.1Zm2.79-11.17h2.79q-.11,2.9,2.79,2.79v2.79Q754.62,1452.66,755.89,1445.8Zm44.68,30.72v-2.79h2.79v2.79Zm61.36-21.18s0,.07-.08.12S861.94,1455.35,861.93,1455.34Zm-.23-3.73a14.12,14.12,0,0,0,.31-3v2.79h2.79c-.74,0-1.5,0-2.67,1.4C862.25,1452.2,862.21,1451.74,861.7,1451.6Zm99.46,19.33h0l1,1Zm20.95-33.51h2.79v2.79h-2.79Zm20-1.37a.32.32,0,0,1-.06-.26A.41.41,0,0,0,1002.06,1436.05Zm19.14,1.34h-.35a8.48,8.48,0,0,0,.86,4.39,10.48,10.48,0,0,1-1.15-4c.1-.12.18-.25.29-.37a29.08,29.08,0,0,0,.35-5.54Zm1.31,5.69-.1-.14Zm9.86-16.83h-2.79v-2.79h5.59v2.79Zm29.15,16.8a1.26,1.26,0,0,1,.36.26A1.42,1.42,0,0,0,1061.53,1443.05Zm.54,2.4s-.06,0-.08,0S1062,1445.47,1062.06,1445.46Zm-.87-2.53a.9.9,0,0,0-.89.06v-5.56A13.22,13.22,0,0,0,1061.19,1442.92Zm-34.4-25.05H1024c.07-3-.8-6.85,4.78-5.15C1030.51,1415.27,1025.61,1415.53,1026.79,1417.87Zm-89.37-114.51h-14v-2.79h14Zm0-22.34h-2.79q-.11-2.9,2.79-2.79Zm25.14-128.47h2.79q2.9-.11,2.79,2.79h-5.59Zm30.69-11.17a.64.64,0,0,0-.14.49,6.86,6.86,0,0,0-2.62-.49Zm1.77,2.46s0,0-.06,0S995,1143.85,995,1143.84Zm-10.12-23.4-1,1,1-1a8.73,8.73,0,0,0-1.87-.87A8.74,8.74,0,0,1,984.9,1120.44Zm-33.51-51.67h-2.79V1066h2.79ZM697.24,1398.32H700v2.79h-2.79Zm19.55,39.1v-2.79h2.79Q719.69,1437.53,716.79,1437.42ZM773,1472.15a1.42,1.42,0,0,0-.26.36A1.26,1.26,0,0,1,773,1472.15Zm-2,4.25a3.65,3.65,0,0,1-1.11.12A3.89,3.89,0,0,0,771,1476.4Zm1.68-2.65a.61.61,0,0,0,.4.14,5.11,5.11,0,0,1-1,1.84A2.83,2.83,0,0,0,772.64,1473.76Zm-.89,2.26a2.24,2.24,0,0,1-.47.27A2,2,0,0,0,771.75,1476Zm3.34-4s0,.06,0,.08S775.11,1472,775.09,1472ZM781,1483.5l-.43-.23.43.23Zm-.62-9.77H781v2.79A4.6,4.6,0,0,0,780.4,1473.73Zm3.42,2.79v-2.79h2.79v-2.79c1.36-.1,2.59.18,2.21,1.85-.1.46-1.44.64-2.21.94Q786.72,1476.63,783.82,1476.52Zm66.4-25.13h.62v0h0v2.79A4.6,4.6,0,0,0,850.22,1451.39Zm3.72,6.8a1.42,1.42,0,0,0-.26.36A1.26,1.26,0,0,1,853.95,1458.19Zm-.31,1.61a.58.58,0,0,0,.34.13,8.54,8.54,0,0,0-.34,2.63Zm27.93,6.18h0q0-.31,0-.62h2.79A4.6,4.6,0,0,0,881.57,1466Zm11.17,16.13h2.79v2.79h-2.79Zm47.48-5.59q-2.9-.11-2.79,2.79h-2.79q.11-2.9-2.79-2.79v-2.79h-5.59v-2.79h5.59v-2.79h5.59q-.11,2.9,2.79,2.79-.11,2.9,2.79,2.79v5.59Q940.11,1479.42,940.21,1476.52Zm67,3.42q0-.31,0-.62H1010a4.6,4.6,0,0,0-2.79.62Zm28.51-41.57c.1-.46,1.44-.64,2.21-.94v2.79C1036.6,1440.31,1035.37,1440,1035.75,1438.36Zm24.53,4.65a.7.7,0,0,0-.12.57c-2.82-.55-5.23-1.37-5.43,2.21C1055,1441.64,1058.16,1443.41,1060.27,1443Zm11.2,5.58h-2.79v-2.79h5.59Q1074.38,1448.7,1071.48,1448.59ZM1024,1403.91l2.79,5.59h-5.59q.11-2.9-2.79-2.79-.11-2.9,2.79-2.79Zm-22.34-33.51c-.77.31-2.11.48-2.21.94-.38,1.67.86,1.95,2.21,1.85v5.59c-1.06,2.75,2.59,7.07-2.79,8.38v2.79h-5.59v-2.79c-.22-1.61.15-3.89-.78-4.71-1.84-1.63-2.09,1.63-3.53,1.9a7,7,0,0,1-1.28,0H984.9v-2.79a2.17,2.17,0,0,0,2.74-2.12c.21-1.87-.12-3.67-2.74-3.47v-8.38h2.79c3-.94,5,1.67,8.38,2.51v-5.3h2.79q-.11,2.9,2.79,2.79Zm17.07-57.44a1.41,1.41,0,0,0-.26.36A1.26,1.26,0,0,1,1018.72,1313Zm-.34,1.58h-2.76a4.67,4.67,0,0,0,2.65-.67A.76.76,0,0,0,1018.38,1314.54Zm-1.65,2.67a3.65,3.65,0,0,1-1.11.12A3.92,3.92,0,0,0,1016.73,1317.21Zm.31-.11a2,2,0,0,0,.47-.27A2.24,2.24,0,0,1,1017,1317.1Zm.8-.56a2.83,2.83,0,0,0,.56-2,.6.6,0,0,0,.4.14A5.11,5.11,0,0,1,1017.85,1316.54Zm3-3.76s0,.06,0,.08S1020.88,1312.81,1020.86,1312.78Zm-24.79,4.55h2.76c-.21.22-.2.65.08,1.22a3.73,3.73,0,0,0,1.63,1.26c.1.06.56-.54.88-.86-.44-.54-.77-1.3-1.34-1.58s-1-.28-1.22-.07v-2.76q2.9.11,2.79-2.79,6.86,1.27,5.59-5.59c2.89-.27,3.16,3,6.72,3.87l-7.11,4.94c2.57,4,7.37,5.68,6,10.74h-5.59l-2.79,5.59q-6.86-1.27-5.59,5.59h-5.59c-.24-4.18-3.47-2.37-5.59-2.79v2.79h-8.38c-1.37-3.56,2.39-5.41,2.79-8.38,2.12-.42,5.35,1.38,5.59-2.79h5.59v-5.59Q996.18,1320.23,996.07,1317.33Zm-22.34,2.79q2.9-.11,2.79,2.79Q973.62,1323,973.73,1320.12Zm-5.59-243v5.59h-5.59v-2.79c4.18-.24,2.37-3.47,2.79-5.59h2.79ZM929,1004.54h-2.79v-2.79H929ZM627.42,1345.26v-5.59h2.79v8.38Q627.31,1348.16,627.42,1345.26Zm131.26,131.26v-5.59h2.79c.4-3,4.16-4.82,2.79-8.38h5.59c-.1-1.36.18-2.59,1.85-2.21.46.1.64,1.44.94,2.21h-2.79v2.79q-2.9-.11-2.79,2.79v2.79h-5.59q-.11,2.9,2.79,2.79h2.79v5.59h2.79a13.22,13.22,0,0,0,5.5-.89.9.9,0,0,0,.06.89h-5.56v2.79h-5.59q.11-2.9-2.79-2.79Q761.58,1476.42,758.68,1476.52Zm16.75,2.82a.61.61,0,0,0,.42.14,4.94,4.94,0,0,1-.78,1.46A4.35,4.35,0,0,0,775.44,1479.34Zm2.45-1.79s0,.06,0,.08S777.9,1477.58,777.89,1477.55Zm75.61-18.46a.76.76,0,0,0,.11.67h-2.76A4.67,4.67,0,0,0,853.5,1459.1Zm30.86,17.42q2.9-.11,2.79,2.79h-2.79Zm24,30.41s.05,0,.08,0S908.4,1506.95,908.38,1506.94Zm-1-2.63a.76.76,0,0,0-.67.11v-2.76h-2.79v-2.79h2.79v2.79A4.67,4.67,0,0,0,907.37,1504.31Zm178.38-40.54a1.42,1.42,0,0,0-.26.36A1.26,1.26,0,0,1,1085.75,1463.77Zm2.14-.18s0,.06,0,.08S1087.9,1463.62,1087.89,1463.59Zm-36-42.93v-2.79h2.79Q1054.83,1420.77,1051.93,1420.67Zm-30.72-142.43h-2.79v5.59q-2.9-.11-2.79,2.79-2.9-.11-2.79,2.79v2.79H1010V1295q-2.9-.11-2.79,2.79-2.9-.11-2.79,2.79-2.9-.11-2.79,2.79t-2.79,2.79q-2.9-.11-2.79,2.79-2.9-.11-2.79,2.79h-2.79v2.79q-2.9-.11-2.79,2.79h-5.59v2.79h-2.79v-2.79h-2.79v-2.79h2.79v-2.79q2.9.11,2.79-2.79h5.59v-2.79q2.9.11,2.79-2.79,2.9.11,2.79-2.79,2.9.11,2.79-2.79,2.9.11,2.79-2.79,2.9.11,2.79-2.79,2.9.11,2.79-2.79h2.79v-5.59q2.9.11,2.79-2.79,2.9.11,2.79-2.79v-2.79q2.9.11,2.79-2.79,2.9-.11,2.79,2.79h2.79Zm-14-69.82h-5.59v2.79h5.59v30.72q-2.9-.11-2.79,2.79v5.59q-2.9-.11-2.79,2.79v5.59h-2.79v2.79q-2.9-.11-2.79,2.79l-2.79,5.59q-2.9-.11-2.79,2.79h-2.79c-.77.31-2.11.48-2.21.94-.38,1.67.86,1.95,2.21,1.85v2.79c-2.12.42-5.35-1.39-5.59,2.79h-2.79v5.59q-2.9-.11-2.79,2.79-2.9-.11-2.79,2.79-2.9-.11-2.79,2.79h-2.79c.11-1.36-.65-3-1.74-2.19-1.59,1.21-4,2.28-3.85,5q-2.9-.11-2.79,2.79H957q-2.9-.11-2.79,2.79h-5.59V1295h5.59v-5.59q2.9.11,2.79-2.79V1281h2.79q2.9.11,2.79-2.79v-2.79q2.9.11,2.79-2.79v-2.79q2.9.11,2.79-2.79h2.79v-2.79h2.79l-2.79-5.59,2.79-2.79,2.79-2.79q2.9-.11,2.79,2.79l5.59-2.79v-2.79h-8.38v-2.79l2.79-2.79,5.59-8.38v-2.79h2.79v-2.79H984.9v-27.93h2.79V1200H984.9q.11-2.9-2.79-2.79v-2.79h-2.79v-8.38h-2.79v-2.79c4.33.45,7.28-1.18,8.38-5.59h2.79q-.11,2.9,2.79,2.79-.11,2.9,2.79,2.79l2.79,5.59q-.11,2.9,2.79,2.79v2.79h2.79v8.38h2.79v2.79h2.79Zm9.77-53.06h0c-.31.31-.92.69-.87.92C1016.09,1156,1016.71,1155.66,1017,1155.35Zm-43.29-81h-2.79v-2.79h2.79Zm-19.55-19.55V1052H957v2.79Zm0-5.59v-2.79H957v2.79ZM677.69,1395.53q-2.9-.11-2.79,2.79h-5.59v-2.76c.22.21.65.2,1.22-.08a3.73,3.73,0,0,0,1.26-1.63c.06-.1-.54-.56-.86-.88-.54.44-1.3.77-1.58,1.34s-.28,1-.07,1.22h-2.76q.11-2.9-2.79-2.79.11-2.9-2.79-2.79.11-2.9-2.79-2.79v-2.79h-2.79v-2.79h-5.59V1376h-5.59a6.84,6.84,0,0,0-5.59-5.59v-2.79H635.8v-2.79H633V1362h-2.79v-2.79c-.1-1.36.18-2.59,1.85-2.21.46.1.64,1.44.94,2.21h2.79v-2.79h2.79v2.79h2.79V1362h2.79v2.79H647q-.11,2.9,2.79,2.79h2.79v2.79q-.11,2.9,2.79,2.79h2.79V1376a6.84,6.84,0,0,1,5.59,5.59c.24,4.18,3.47,2.37,5.59,2.79q-.11,2.9,2.79,2.79-.11,2.9,2.79,2.79-.11,2.9,2.79,2.79h2.79Q680.59,1395.64,677.69,1395.53Zm168.62,81.31c.65-1,1.16-2.07,1.74-3.11q-2.9.11-2.79-2.79v-2.79q2.9.11,2.79-2.79h2.79c1.37,3.56-2.39,5.41-2.79,8.38,3,.4,4.82,4.16,8.38,2.79a27,27,0,0,0-1.67-3c-1.77-2.44.15-2.34,1.67-2.55h2.79q-.11,2.9,2.79,2.79h2.79c.24,4.18,3.47,2.37,5.59,2.79v2.79a16.25,16.25,0,0,0-2.73,0c-.82.14-2.16.44-2.26.9-.39,1.72.9,1.92,2.26,1.86.91,0,1.83,0,2.74,0,1.31,5.38,5.63,1.73,8.38,2.79v2.79c2.12-.42,5.35,1.39,5.59-2.79h2.79c.42,2.12-1.39,5.35,2.79,5.59v5.59h-2.79c-.31-.77-.48-2.11-.94-2.21-1.67-.38-1.95.86-1.85,2.21-2.12.42-5.35-1.39-5.59,2.79H876q.11-2.9-2.79-2.79.11-2.9-2.79-2.79c.1,1.36-.18,2.59-1.85,2.21-.46-.1-.64-1.44-.94-2.21q-2.9-.11-2.79,2.79H862c-.42-2.12,1.39-5.35-2.79-5.59v2.79h-2.79v-2.79h-2.79q.11-2.9-2.79-2.79.11-2.9-2.79-2.79v-2.79C844.22,1481.42,844.65,1479.37,846.31,1476.84Zm220.24-14.42a.76.76,0,0,0-.67.11v-2.76A4.67,4.67,0,0,0,1066.56,1462.42Zm1.09,2.59s-.06,0-.08,0S1067.62,1465,1067.65,1465Zm15,.35a4.67,4.67,0,0,0,2.65-.67.76.76,0,0,0,.11.67Zm2.79,0a.64.64,0,0,0,.48.14,24.17,24.17,0,0,0-.48,5.41Zm36.31-16.79h2.79v2.79h-2.79Zm0-2.79H1119V1443h2.79Zm-11.17,19.55v-11.17l5.59-2.79C1115.59,1456.56,1118.53,1463.13,1110.58,1465.35ZM1082.65,1443h-2.79v-2.79h2.79Zm-5.59-8.38c-1.36.1-2.59-.18-2.21-1.85.1-.46,1.44-.64,2.21-.94Zm-67-61.44h-2.79v-5.59H1010Zm11.17-41.89H1024v2.79h-2.79Zm-2.79-164.78h2.79v2.79h-2.79Zm16.76-30.72v5.59h-2.79C1032.8,1139.27,1031,1136,1035.17,1135.8ZM627.42,1024.09h2.79v2.79h-2.79Zm61.44,405h-5.59q.11-2.9-2.79-2.79c-1.06-2.75,2.59-7.07-2.79-8.38v-2.79a6.43,6.43,0,0,1,0-1.32c5.81-1.07,6.29-5.12,5.58-9.85h-2.79v-2.79h5.59v5.59q-.11,2.9,2.79,2.79v5.59q.11,2.9-2.79,2.79h-2.79q-.11,2.9,2.79,2.79v2.79q-.11,2.9,2.79,2.79Zm5.59-2.79h2.79V1429h-2.79Zm81,67h2.79v2.79h-2.79Zm86.58,8.38h2.79v2.79H862Zm181.5-33.51a.64.64,0,0,0-.14.48,24.16,24.16,0,0,0-5.41-.48Zm1.79,2.45s-.06,0-.08,0S1045.28,1470.61,1045.31,1470.59Zm-1.09-2.59a.76.76,0,0,0-.67.11v-2.76A4.67,4.67,0,0,0,1044.21,1468Zm10.85,9.68c0,.06,0,.14,0,.22A.25.25,0,0,1,1055.06,1477.69Zm3.86,4.38c-.18.14-.95-.4-1.17-1.5A2,2,0,0,0,1058.93,1482.07Zm6.93-19.51a.58.58,0,0,0-.13.34,8.53,8.53,0,0,0-2.63-.34Zm50.3-19.55h-2.79v-2.79h2.79Zm-25.14-8.38v2.79h-8.38v-2.79H1091Zm-14-11.17q-2.9.11-2.79-2.79h2.79Zm-55.86-36.31h-2.79v-5.59h2.79v5.59ZM1032.38,1228v11.17C1028.6,1235.6,1028.6,1231.49,1032.38,1228Zm-2.79,22.34v5.59c-2.62.2-2.95-1.59-2.74-3.47A2.17,2.17,0,0,1,1029.58,1250.3Zm-.58-26.08c-.1.46-1.44.64-2.21.94v-2.79C1028.15,1222.28,1029.39,1222.55,1029,1224.23Zm-27.35-133.11h-2.79q.11-2.9-2.79-2.79t-2.79-2.79q.11-2.9-2.79-2.79v2.79h-8.38q-2.9.11-2.79-2.79h11.17v-2.79h5.59q-.11,2.9,2.79,2.79h2.79Zm-27.93-47.48v2.79h8.38v22.34h-2.79c-.24-4.18-3.47-2.37-5.59-2.79v-2.79H962.56v-14h2.79v-5.59h8.38ZM954.18,985H957v5.59h-2.79v-2.79h-2.79V985Zm-53.06,5.59h-2.79v-2.79h2.79Zm-81,508.29v-2.79h2.79v2.79Zm139.61,14a.58.58,0,0,0-.13.34,8.54,8.54,0,0,0-2.63-.34Zm1.79,2.45s-.06,0-.08,0S961.5,1515.29,961.52,1515.28Zm-1.09-2.59a.76.76,0,0,0-.67.11V1510A4.67,4.67,0,0,0,960.43,1512.69Zm69.15-30.58a17.12,17.12,0,0,0-.62-5.59h.62Zm36.31-8.38h5.59v2.79h-2.79Q1065.78,1476.63,1065.89,1473.73Zm25.14,2.79h2.79v2.79H1091Zm-47.48-78.2h-2.79v-2.79h2.79Zm-8.38-16.76h-2.79q-.11-2.9,2.79-2.79Zm-5.53-165.45c-.22,1.87-.22,3.67-2.85,3.47V1214c-.42-2.12,1.39-5.35-2.79-5.59v-2.79c-.42-2.12,1.39-5.35-2.79-5.59v-8.38h-2.79v-2.79h-2.79v-2.79q.11-2.9-2.79-2.79.11-2.9-2.79-2.79v-5.59h-2.79v-2.79h-5.59q.11-2.9-2.79-2.79v-2.79h5.59q-.11,2.9,2.79,2.79v2.79H1010v2.79h5.59v2.79q-.11,2.9,2.79,2.79-.11,2.9,2.79,2.79-.11,2.9,2.79,2.79v5.59q-.11,2.9,2.79,2.79c1.06,2.75-2.59,7.07,2.79,8.38.42,2.12-1.39,5.35,2.79,5.59V1214A2.17,2.17,0,0,0,1029.64,1216.12ZM982.11,979.4v2.79h-2.79V979.4Zm2.79,25.14V999h2.79v2.79Q987.8,1004.64,984.9,1004.54Zm14-11.17h2.79v2.79h-2.79Zm-259.73,16.76h-2.79v-2.79Q739.24,1007.22,739.13,1010.12Zm-89.37,11.17h-14v-2.79h5.59C644.13,1019.56,648.45,1015.91,649.76,1021.29Zm69.82-47.48V971h2.79Q722.48,973.92,719.58,973.82Zm-209.46,30.72v2.79q-2.9.11-2.79-2.79ZM507.33,1119v11.17c-2.65.2-2.68-1.61-2.82-3.5s1-4.86-2.77-4.88v-5.59h5.59Zm-19.55,128.47v2.79H485v-2.79Zm-19.55,81c-.1-1.36.18-2.59,1.85-2.21.46.1.64,1.44.94,2.21Zm50.58,48.69a1.41,1.41,0,0,0-.26.36A1.26,1.26,0,0,1,518.81,1377.2Zm2.14-.18s0,.06,0,.08S521,1377,520.95,1377Zm290.8,155.36h2.79v2.79h-2.79Zm14.45-19.55c-1.91,0-3.46.38-3.28,2.8h-2.79q.11-2.9-2.79-2.79c.86-4.68,6.12-2.77,8.29-5.49a1.26,1.26,0,0,0,.14,1.12,3.73,3.73,0,0,0,1.63,1.26c.1.06.56-.54.88-.86-.44-.54-.77-1.3-1.34-1.58s-1-.28-1.22-.07v-5.56h2.79c-.2,2.65,1.67,3.08,3.49,2.73,3.36-.65,1.72-3.54,2.09-5.52l5.59-2.79v5.59c.06,2.38-4.63,4.64-.08,7.26.58.34.08,2.56.08,3.91h-5.59C831.46,1512.83,828.83,1512.84,826.2,1512.83Zm326.27-58.65V1457h2.79q.11,2.9-2.79,2.79h-8.38V1457q2.9.11,2.79-2.79h5.59ZM1043,1199.09c-.1.46-1.44.64-2.21.94v-2.79C1042.11,1197.14,1043.35,1197.42,1043,1199.09Zm-16.18-108q-.11-2.9,2.79-2.79Q1029.69,1091.22,1026.79,1091.11Zm-14-33.51v19.55H1010q-2.9.11-2.79-2.79h-5.59q.11-2.9-2.79-2.79V1052h8.38q-.11,2.9,2.79,2.79h2.79Zm-8.38-75.41h-2.79V979.4h2.79Zm-11.17-2.79h-2.79v-2.79h2.79Zm-53.06-58.65H943v2.79h2.79v36.31q-.11,2.9,2.79,2.79v14H945.8c-.24,4.18-3.47,2.37-5.59,2.79h-8.38l-5.59-2.79q.11,2.9-2.79,2.79h-8.38v2.79H906.7q.11-2.9-2.79-2.79h-14v2.79h-8.38q-2.9-.11-2.79,2.79v2.79h-8.38v-5.59H853.64v5.59q-.11,2.9,2.79,2.79v5.59h-2.79v-2.79h-5.59q.11-2.9-2.79-2.79h-5.59v2.79h-2.79c-1.69-.35-3.79.93-5.07-.93-1.6-2.34-3.89-1.86-6.1-1.86v-2.79h-2.79v2.79q-2.9-.11-2.79,2.79v2.79H803.37c-3.56,1.37-5.41-2.39-8.38-2.79a2.17,2.17,0,0,1-2.12,2.74c-1.87.22-3.67.22-3.47,2.85h-2.79q-2.9.11-2.79-2.79c-2.63,0-5.26,0-7.89,0-1.91,0-3.46.38-3.28,2.8h-14c-2.12.42-5.35-1.39-5.59,2.79H725.17v2.79H700v2.79H680.48c-2.75,1.06-7.07-2.59-8.38,2.79h-8.38q-2.9-.11-2.79,2.79H644.18V990.57H674.9v-2.79h14q-.11,2.9,2.79,2.79v-2.79H700c-.32,1.69,1.14,3.11,2,2.66,3.14-1.62,7.67-1.07,9.15-5.45h8.38v-2.79h16.76c2.63,0,5.26,0,7.89,0,1.91,0,3.46-.38,3.28-2.8h11.17c2.12-.42,5.35,1.38,5.59-2.79h33c1.9,0,3.52-.32,3.34-2.79h14c2.63,0,5.26,0,7.89,0,1.91,0,3.46-.38,3.28-2.8h14c2.75-1.06,7.07,2.59,8.38-2.79h22.34v-2.79h44.68c4.19,2.4,4.19,2.4,8.38,0h2.79v-2.79h8.38v-5.59H943c-.24-4.18-3.47-2.37-5.59-2.79h-5.59q-2.9-.11-2.79,2.79h-14c-2.63,0-5.26,0-7.89,0-1.91,0-3.46.38-3.28,2.8H887.15c-3.55-1.37-5.41,2.38-8.37,2.79h-14c-2.63,0-5.26,0-7.89,0-1.91,0-3.46.38-3.28,2.8h-33c-1.9,0-3.52.32-3.34,2.79h-14c-2.75,1.06-7.07-2.59-8.38,2.79H781c.19,2.55-1.51,2.79-3.41,2.79H755.89q-2.9-.11-2.79,2.79H728V971h2.79v-2.79q2.9.11,2.79-2.79h5.59a2.17,2.17,0,0,0,2.12,2.74c1.87.21,3.67-.12,3.47-2.74h5.59q2.9.11,2.79-2.79v-2.79h5.59v-2.79h19.55v-2.79q.11-2.9-2.79-2.79h-5.59v2.79H758.68c-2.75,1.06-7.07-2.59-8.38,2.79H728q-2.9.11-2.79-2.79-2.9.11-2.79-2.79h14c2.75-1.06,7.07,2.59,8.38-2.79h16.76v-5.59h5.59v2.79H789.4c3-.4,4.82-4.16,8.38-2.79h14v-5.59h2.79q-.11,2.9,2.79,2.79,2.9.11,2.79-2.79h2.79c2.12-.42,5.35,1.38,5.59-2.79h5.59c5.7-.22,11.7,1.32,16.76-2.79,4.53-.43,9.3.87,14.75-1.34L862,929.13v-2.79h8.38l5.59-2.79h8.38c7,2.11,12.73-4,19.55-2.79h11.17c3-.4,4.82-4.16,8.38-2.79h14Q937.31,920.86,940.21,920.75Zm-106.13-14H828.5V904h5.59ZM811.74,904h2.79v2.79h-2.79ZM795,901.2h8.38v8.38h2.79v2.79h33.51V904c-.24-4.18-3.47-2.37-5.59-2.79v-5.59h22.34c.31.77.48,2.11.94,2.21,1.67.38,1.95-.86,1.85-2.21h19.55v2.79h2.79c.24,4.18,3.47,2.37,5.59,2.79.24,4.18,3.47,2.37,5.59,2.79h11.17v2.79h5.59q-.11,2.9,2.79,2.79h2.79l2.79,5.59H901.7c-1.9,0-3.56.28-3.38,2.79h-14v2.79H845.87c-1.9,0-3.6.24-3.41,2.79h-8.38c-1.31-5.38-5.63-1.73-8.38-2.79l2.79,5.59H811.74v2.79H786.61c-.24,4.18-3.47,2.37-5.59,2.79h-8.38v-2.79h5.59c4.18-.24,2.37-3.47,2.79-5.59V918q2.9.11,2.79-2.79v-2.79H781q.11-2.9-2.79-2.79h-2.79q.11-2.9-2.79-2.79h-5.59V904h5.59V901.2H795Zm-92.16,5.59H700V904h2.79ZM538,943.09q-.11,2.9,2.79,2.79v5.59h2.79v14L540.84,971H538c-.42-2.12,1.39-5.35-2.79-5.59V943.09Zm-83.78,33.51v-14h2.79c-.17-2.42,1.38-2.8,3.28-2.8,2.63,0,5.26,0,7.89,0H479.4l5.59-2.79h22.34c2.75-1.06,7.07,2.59,8.38-2.79h14v2.79q1.27,6.86-5.59,5.59-2.9-.11-2.79,2.79H518.5q.11-2.9-2.79-2.79h-2.79c-.24-4.18-3.47-2.37-5.59-2.79H490.57c-2.22,0-4.5-.48-6.1,1.86-1.28,1.87-3.38.59-5.07.93h-14q-2.9-.11-2.79,2.79h-2.79v30.72h-2.79v19.55h-2.79v-39.1Zm27.93,69.82v-2.79H479.4q.11-2.9-2.79-2.79.11-2.9-2.79-2.79a6.85,6.85,0,0,0-5.59-5.59v-2.79l-5.59-5.59V996.16H485v5.59q-.11,2.9,2.79,2.79-.11,2.9,2.79,2.79h11.17l8.38,2.79v8.38l-2.79,16.76v2.79h2.79v2.79h-2.79c.42,2.12-1.39,5.35,2.79,5.59v2.79h-2.79V1052q-.11,2.9,2.79,2.79v2.79l-5.59,2.79q2.9-.11,2.79,2.79v39.1q-2.9.11-2.79-2.79,0-16.41,0-32.81c0-1.9-.15-3.7-2.79-3.49v-2.79h-2.79v-2.79h-2.79q.11-2.9-2.79-2.79.11-2.9-2.79-2.79.11-2.9-2.79-2.79v-2.79h-5.59Zm-2.79,184.33V1228q2.9.11,2.79-2.79,2.9-.11,2.79,2.79t2.79,2.79h2.79v5.59q-2.9-.11-2.79,2.79-2.9-.11-2.79,2.79-2.9-.11-2.79,2.79-2.9-.11-2.79,2.79-2.9-.11-2.79,2.79-2.9-.11-2.79,2.79-2.9-.11-2.79,2.79-2.9-.11-2.79,2.79-2.9-.11-2.79,2.79-2.9-.11-2.79,2.79h-2.79q.11-2.9-2.79-2.79v-2.79q2.9.11,2.79-2.79v-2.79h2.79v-2.79q2.9.11,2.79-2.79v-2.79H471c.56-5.85,6.72-.47,8.34-4.16-.81-2.77-6,.26-5.55-4.22q2.9.11,2.79-2.79Q479.51,1233.65,479.4,1230.75Zm39,147.35a.76.76,0,0,0,.11.67h-2.76A4.67,4.67,0,0,0,518.36,1378.11Zm.14,3.46v-2.76a.58.58,0,0,0,.34.13,8.54,8.54,0,0,0-.34,2.63q2.9-.11,2.79,2.79H518.5Zm72.61,30.72v-2.79h-2.79v-2.79h-2.79q-2.9.11-2.79-2.79h-2.79q1.27-6.85-5.59-5.59v-2.79H566v-2.79h-2.79c1.06-2.75-2.59-7.07,2.79-8.38v-25.14q-.11-2.9,2.79-2.79-.11,2.9,2.79,2.79V1362h5.59c.24,4.18,3.47,2.37,5.59,2.79h5.59v2.79h5.59v2.79h2.79c-.07,3.09-.53,6.44,4.44,5.62a24.49,24.49,0,0,1,3.94,0h5.59v22.34h-2.79q-.11,2.9,2.79,2.79v19.55h-2.79c-.24-4.18-3.47-2.37-5.59-2.79q.11-2.9-2.79-2.79c-.24-4.18-3.47-2.37-5.59-2.79Zm89.37,36.31c-.42-2.12,1.39-5.35-2.79-5.59v2.79H674.9V1443h2.79q.11-2.9-2.79-2.79c-.31-.77-.48-2.11-.94-2.21-1.67-.38-1.95.86-1.85,2.21h-5.59q.11-2.9-2.79-2.79.11-2.9-2.79-2.79c-.24-4.18-3.47-2.37-5.59-2.79q.11-2.9-2.79-2.79h-2.79q.11-2.9-2.79-2.79.11-2.9-2.79-2.79h-2.79q.11-2.9-2.79-2.79c-.24-4.18-3.47-2.37-5.59-2.79q.11-2.9-2.79-2.79.11-2.9-2.79-2.79.11-2.9-2.79-2.79v-2.79q-.11-2.9,2.79-2.79-.11,2.9,2.79,2.79H633q-.11,2.9,2.79,2.79h2.79q-.11,2.9,2.79,2.79-.11,2.9,2.79,2.79H647q-.11,2.9,2.79,2.79-.11,2.9,2.79,2.79h2.79q-.11,2.9,2.79,2.79-.11,2.9,2.79,2.79l5.59,2.79q-.11,2.9,2.79,2.79h2.79q-.11,2.9,2.79,2.79h2.79q-.11,2.9,2.79,2.79-.11,2.9,2.79,2.79-.11,2.9,2.79,2.79h2.79q-.11,2.9,2.79,2.79-.11,2.9,2.79,2.79h2.79q1.27,6.85-5.59,5.59c-.24-4.18-3.47-2.37-5.59-2.79C685.83,1447.21,682.6,1449,680.48,1448.59Zm53.06,36.31q.11-2.9-2.79-2.79v-2.79a6.85,6.85,0,0,0-5.59-5.59q.11,2.9-2.79,2.79v-2.79h-5.59q.11-2.9-2.79-2.79.11-2.9-2.79-2.79v-2.79H714v-2.79h2.79v2.79h5.59v2.79h2.79l5.59,2.79c.24,4.18,3.47,2.37,5.59,2.79v2.79h2.79q2.9-.11,2.79,2.79v2.79h-2.79v2.79h-5.59Zm50.27,30.72v-2.79q2.9.11,2.79-2.79h5.59q-.11,2.9,2.79,2.79v2.79q-2.9-.11-2.79,2.79H789.4C789.16,1514.24,785.93,1516,783.82,1515.62Zm39.1,25.14V1538q2.9-.11,2.79,2.79Zm-2.79-11.17v-2.79h2.79v2.79Zm8.38-5.59v-2.79q2.9.11,2.79-2.79h8.38c.74.27,1.91.35,2.14.86.78,1.7-.67,1.87-1.79,1.91-1.91.06-3.29.55-3.14,2.82C832.69,1526.39,832.69,1526.39,828.5,1524Zm91.54,2.79h.62v2.79A4.6,4.6,0,0,0,920,1526.79Zm162.61-33.51h-8.38q-2.9-.11-2.79,2.79c-2.75,1.06-7.07-2.59-8.38,2.79h-5.59c-.31-.77-.48-2.11-.94-2.21-1.67-.38-1.95.86-1.85,2.21h-5.59v-2.79q-2.9.11-2.79-2.79h2.79c2.12-.42,5.35,1.39,5.59-2.79h5.59v2.79c4.76.22,8.34-1.93,11.17-5.59h5.59q2.9.11,2.79-2.79H1091v2.79h2.79c.1,1.36-.18,2.59-1.85,2.21-.46-.1-.64-1.44-.94-2.21-4.18.24-2.37,3.47-2.79,5.59Zm81-16.76h-2.79v-2.79h2.79v-2.79h-2.79v-2.79h2.79v2.79h2.79v5.59Z" transform="translate(-440.3 -887.72)" fill="#6b6b6b"/><path d="M1131.6,1109.24l0,1-38.48-.84-.21,9.54,38.41.83,0,1-48.66-1.06,0-1,9.21.2.21-9.54-9.28-.2,0-1Z" transform="translate(-440.3 -887.72)"/><path d="M1131.18,1128.45l0,1-48.66-1.06,0-1Z" transform="translate(-440.3 -887.72)"/><path d="M1131.77,1137.16l-.34.71a22.53,22.53,0,0,1-6,6.56c-4.22,3.22-10.91,6.38-20.78,6.17s-15.63-3.65-18.87-7a16,16,0,0,1-4-6.77l.46-.12v-.52Zm-48.88,0a16.28,16.28,0,0,0,3.64,5.73c3.11,3.25,8.56,6.55,18.16,6.76s16-2.83,20.06-5.93a23.87,23.87,0,0,0,5.31-5.53Z" transform="translate(-440.3 -887.72)"/><path d="M1131.3,1158.84l-.34.71a22.53,22.53,0,0,1-6,6.56c-4.22,3.22-10.91,6.38-20.78,6.17s-15.63-3.65-18.87-7a16,16,0,0,1-4-6.77l.46-.12v-.52Zm-48.88,0a16.28,16.28,0,0,0,3.64,5.73c3.11,3.25,8.56,6.55,18.16,6.76s16-2.83,20.06-5.93a23.87,23.87,0,0,0,5.31-5.53Z" transform="translate(-440.3 -887.72)"/><path d="M1130.51,1180.5l-.29,13.43-1,0,.27-12.52-38-.82-.23,10.45-1,0,.23-10.45-8.76-.19-.27,12.46-1,0,.29-13.5Z" transform="translate(-440.3 -887.72)"/><path d="M1129.45,1211.25l-48.66-1.06-.11-1,44.39-8.58-44.12-1a.45.45,0,1,1,0-.91l48.66,1.06.11,1-44.39,8.58,44.12,1a.45.45,0,0,1,0,.91Z" transform="translate(-440.3 -887.72)"/><path d="M1080.75,1122.4a6,6,0,0,1-6.46,6.19l-19.42-.42a6,6,0,0,1-6.19-6.46L1049,1105l32.07.7Zm-26-2.17a1.36,1.36,0,0,0,1.48,1.55l16.93.37a1.36,1.36,0,0,0,1.55-1.48l.19-8.69-20-.43Z" transform="translate(-440.3 -887.72)" fill="#6b6b6b"/><path d="M1048.35,1136.67l.14-6.64,31.85,11-.16,7.48-32.3,9.64.15-6.91,7.26-1.94.23-10.38Zm13.19,4.21-.15,6.86,11.83-3.13Z" transform="translate(-440.3 -887.72)" fill="#6b6b6b"/><path d="M1047.45,1178.33l12-4.91.11-5.17-11.89-.26.14-6.41,32.07.7-.35,16.35a6,6,0,0,1-6.46,6.19l-7.53-.16a6,6,0,0,1-6-4.5l-12.28,5.08Zm24.51,0a1.36,1.36,0,0,0,1.55-1.48l.18-8.33-8.15-.18-.18,8.33a1.36,1.36,0,0,0,1.48,1.55Z" transform="translate(-440.3 -887.72)" fill="#6b6b6b"/><path d="M1055.26,1196.19l-8.2-.18.14-6.33,32.07.7-.14,6.33-15.06-.33,14.82,11.42-.16,7.53-12.44-10.12-19.65,9.91.16-7.22,14.1-7.09Z" transform="translate(-440.3 -887.72)" fill="#6b6b6b"/><path d="M1046.21,1235.22l12-4.91.11-5.17-11.89-.26.14-6.41,32.07.7-.35,16.35a6,6,0,0,1-6.46,6.19l-7.53-.16a6,6,0,0,1-6-4.5l-12.28,5.08Zm24.51,0a1.36,1.36,0,0,0,1.55-1.48l.18-8.33-8.15-.18-.18,8.33a1.36,1.36,0,0,0,1.48,1.55Z" transform="translate(-440.3 -887.72)" fill="#6b6b6b"/><path d="M1077.86,1263.59a6,6,0,0,1-6.46,6.19l-19.78-.43a6,6,0,0,1-6.19-6.46l.23-10.74a6,6,0,0,1,6.46-6.19l19.78.43a6,6,0,0,1,6.19,6.46Zm-7.57-.25a1.36,1.36,0,0,0,1.55-1.48l.16-7.53a1.36,1.36,0,0,0-1.48-1.55l-17.28-.38a1.36,1.36,0,0,0-1.55,1.48l-.16,7.53A1.36,1.36,0,0,0,1053,1263Z" transform="translate(-440.3 -887.72)" fill="#6b6b6b"/><path d="M1077.26,1291.66a6,6,0,0,1-6.46,6.19l-19.78-.43a6,6,0,0,1-6.19-6.46l.23-10.74a6,6,0,0,1,6.46-6.19l19.78.43a6,6,0,0,1,6.19,6.46Zm-7.57-.25a1.36,1.36,0,0,0,1.55-1.48l.16-7.53a1.36,1.36,0,0,0-1.48-1.55l-17.28-.38a1.36,1.36,0,0,0-1.55,1.48l-.16,7.53a1.36,1.36,0,0,0,1.48,1.55Z" transform="translate(-440.3 -887.72)" fill="#6b6b6b"/><path d="M1044.08,1333.37l.13-6.06,21.38.46-16.11-7.3.1-4.63,16.41-6.6-21.38-.46.13-6.06,32.07.7-.15,7-19,7.88,18.62,8.69-.15,7Z" transform="translate(-440.3 -887.72)" fill="#6b6b6b"/></svg>